<svg width="327" height="270" viewBox="0 0 327 270" fill="none" xmlns="http://www.w3.org/2000/svg">
<g clip-path="url(#clip0_1073_37486)">
<path d="M243.754 56.9854H207.706V109.353H243.754V56.9854Z" fill="#E0E0E0"/>
<path d="M241.951 56.9854H205.902V109.353H241.951V56.9854Z" fill="#F5F5F5"/>
<path d="M237.473 62.6553H210.381V103.683H237.473V62.6553Z" fill="white"/>
<path d="M237.472 103.676C237.472 103.676 237.472 103.604 237.472 103.474C237.472 103.337 237.472 103.143 237.472 102.891C237.472 102.372 237.472 101.623 237.458 100.643C237.458 98.6763 237.444 95.809 237.436 92.1925C237.422 84.9595 237.408 74.7151 237.393 62.648L237.487 62.7416C229.213 62.7416 220.041 62.7416 210.402 62.7488L210.503 62.648C210.495 78.1227 210.488 92.3942 210.481 103.669L210.402 103.59C218.654 103.604 225.418 103.618 230.119 103.633C232.469 103.64 234.31 103.647 235.568 103.654C236.193 103.654 236.667 103.654 236.998 103.662C237.321 103.662 237.494 103.669 237.494 103.669C237.494 103.669 237.336 103.669 237.019 103.676C236.696 103.676 236.222 103.676 235.603 103.683C234.353 103.683 232.52 103.698 230.176 103.705C225.461 103.712 218.683 103.726 210.409 103.748H210.33V103.669C210.33 92.387 210.316 78.1227 210.309 62.648V62.5471H210.409C220.048 62.5471 229.22 62.5471 237.494 62.5543H237.587V62.648C237.566 74.7367 237.551 85.0027 237.544 92.2501C237.537 95.8595 237.523 98.7195 237.523 100.679C237.523 101.652 237.515 102.401 237.508 102.912C237.508 103.157 237.508 103.352 237.508 103.482C237.508 103.611 237.508 103.669 237.508 103.669L237.472 103.676Z" fill="#E0E0E0"/>
<path d="M242.051 56.9853C242.051 56.9853 241.828 57.3599 241.411 57.9219C240.994 58.4838 240.398 59.2475 239.722 60.0687C239.046 60.8972 238.407 61.6248 237.939 62.1436C237.472 62.6623 237.163 62.972 237.149 62.9576C237.127 62.936 237.393 62.5974 237.839 62.0571C238.32 61.4664 238.917 60.7459 239.571 59.9463C240.225 59.1466 240.822 58.4262 241.303 57.8354C241.749 57.2951 242.037 56.9709 242.058 56.9853H242.051Z" fill="#E0E0E0"/>
<path d="M237.609 103.546C238.954 105.693 240.542 107.682 242.332 109.468Z" fill="white"/>
<path d="M242.332 109.468C242.332 109.468 241.994 109.209 241.505 108.719C241.023 108.229 240.376 107.523 239.722 106.702C239.068 105.881 238.522 105.095 238.155 104.519C237.789 103.935 237.587 103.561 237.609 103.546C237.631 103.532 237.875 103.878 238.27 104.44C238.666 105.002 239.226 105.765 239.88 106.579C240.535 107.393 241.153 108.107 241.613 108.618C242.073 109.13 242.353 109.447 242.339 109.461L242.332 109.468Z" fill="#E0E0E0"/>
<path d="M205.895 109.31C207.469 107.365 209.043 105.42 210.617 103.474Z" fill="white"/>
<path d="M210.617 103.467C210.661 103.503 209.64 104.836 208.332 106.45C207.031 108.063 205.938 109.338 205.895 109.31C205.852 109.274 206.872 107.941 208.181 106.327C209.482 104.713 210.574 103.438 210.617 103.467Z" fill="#E0E0E0"/>
<path d="M205.902 56.9854C205.945 56.9494 206.973 58.1813 208.195 59.7302C209.417 61.2791 210.373 62.5615 210.33 62.5975C210.287 62.6335 209.259 61.4016 208.037 59.8527C206.815 58.3038 205.859 57.0214 205.902 56.9854Z" fill="#E0E0E0"/>
<path d="M229.033 70.9832H219.962V96.7959H229.033V70.9832Z" fill="#E0E0E0"/>
<path d="M172.046 203.519C168.739 204.485 166.065 207.093 164.506 210.162C162.939 213.238 162.392 216.739 162.342 220.19C162.249 226.868 165.138 233.986 168.488 239.757C174.634 235.621 176.97 227.351 177.897 223.079C179.356 216.328 177.911 203.231 172.046 203.519Z" fill="#F5F5F5"/>
<path d="M160.682 249.807C162.04 246.197 161.012 241.925 158.489 239.015C155.966 236.104 152.121 234.526 148.282 234.332C146.507 234.245 144.537 234.512 143.351 235.838C142.237 237.077 142.101 238.979 142.683 240.542C143.258 242.105 144.444 243.366 145.731 244.425C150.137 248.049 155.068 250.743 160.696 249.807" fill="#F5F5F5"/>
<path d="M165.296 265.857C165.383 265.843 165.368 264.172 165.095 261.448C164.959 260.087 164.599 258.459 163.995 256.751C163.384 255.058 162.752 253.178 161.789 251.298C159.913 247.53 157.224 244.67 154.946 243.128C153.81 242.343 152.796 241.867 152.099 241.572C151.38 241.305 150.971 241.19 150.956 241.241C150.906 241.363 152.502 241.939 154.637 243.56C156.771 245.167 159.294 247.977 161.127 251.643C162.055 253.452 162.709 255.325 163.348 256.989C163.981 258.66 164.369 260.195 164.57 261.528C164.973 264.2 165.174 265.879 165.289 265.865L165.296 265.857Z" fill="#E0E0E0"/>
<path d="M172.269 213.591C172.219 213.584 172.046 214.355 171.773 215.767C171.5 217.179 171.133 219.217 170.695 221.746C169.832 226.803 168.711 233.806 167.669 241.572C166.626 249.338 165.879 256.398 165.44 261.513C165.225 264.071 165.074 266.146 164.995 267.579C164.915 269.013 164.894 269.805 164.951 269.813C165.002 269.813 165.117 269.027 165.289 267.608C165.462 266.052 165.692 264.02 165.972 261.571C166.54 256.47 167.367 249.439 168.409 241.68C169.494 233.993 170.479 227.048 171.219 221.84C171.557 219.397 171.845 217.373 172.06 215.824C172.247 214.398 172.326 213.612 172.276 213.598L172.269 213.591Z" fill="#E0E0E0"/>
<path d="M168.703 253.394C172.017 245.981 179.119 240.391 187.098 238.914C189.125 238.539 191.626 238.611 192.748 240.355C193.869 242.098 192.884 244.418 191.655 246.089C186.544 253.027 176.97 256.312 168.696 253.963" fill="#F5F5F5"/>
<path d="M184.288 244.281C184.273 244.23 183.863 244.324 183.137 244.526C182.411 244.72 181.384 245.073 180.118 245.549C177.639 246.543 174.138 248.07 171.047 250.909C169.516 252.321 168.301 253.934 167.439 255.527C166.562 257.119 166.102 258.696 165.793 260.015C165.527 261.348 165.39 262.435 165.39 263.199C165.369 263.956 165.376 264.373 165.433 264.373C165.584 264.388 165.642 262.709 166.31 260.144C166.677 258.877 167.173 257.371 168.05 255.865C168.912 254.359 170.084 252.832 171.565 251.471C174.533 248.74 177.926 247.155 180.327 246.053C182.771 244.987 184.331 244.41 184.288 244.295V244.281Z" fill="#E0E0E0"/>
<path d="M309.052 77.258C309.052 77.258 301.519 75.0319 298.471 92.3941C295.423 109.763 295.179 119.309 295.179 119.309C295.179 119.309 294.122 123.077 291.333 121.679C288.544 120.282 283.807 115.354 280.465 117.53C276.993 119.785 277.043 124.424 279.681 130.454C282.319 136.484 287.61 149.898 288.084 151.116C288.551 152.312 288.4 154.322 286.352 153.673C284.303 153.025 271.235 145.143 267.871 151.584C264.507 158.025 274.606 173.607 275.677 175.329C276.748 177.051 276.626 177.966 275.879 178.708C275.131 179.443 270.991 176.381 267.181 174.292C263.371 172.203 258.591 170.452 256.967 174.328C255.335 178.204 258.433 191.272 276.964 208.353L286.064 215.702L297.084 211.638C320.136 201.502 327.288 190.141 327 185.941C326.713 181.741 321.624 181.849 317.347 182.591C313.07 183.333 308.16 184.882 307.693 183.945C307.226 183.009 307.406 182.101 308.973 180.819C310.547 179.536 325.131 168.074 324.032 160.892C322.932 153.709 308.024 156.922 305.875 156.872C303.725 156.814 304.236 154.862 305.062 153.889C305.903 152.895 315.248 141.916 319.69 137.075C324.132 132.226 325.678 127.853 323.126 124.597C320.668 121.449 314.586 124.575 311.503 124.993C308.419 125.411 308.635 121.499 308.635 121.499C308.635 121.499 311.488 112.386 314.22 94.966C316.951 77.5462 308.901 77.2364 308.901 77.2364" fill="#F5F5F5"/>
<path d="M306.291 92.8047C306.291 92.8047 306.291 92.9272 306.255 93.1721C306.219 93.4315 306.169 93.7845 306.104 94.2455C305.961 95.2037 305.759 96.5941 305.493 98.3736C304.962 101.954 304.142 107.134 303.114 113.524C301.058 126.312 298.075 143.947 294.711 163.413C291.347 182.886 288.314 200.515 286.193 213.288C285.137 219.664 284.289 224.829 283.692 228.417C283.397 230.189 283.167 231.572 283.009 232.531C282.93 232.985 282.865 233.345 282.822 233.597C282.779 233.835 282.743 233.957 282.743 233.957C282.743 233.957 282.743 233.835 282.779 233.59C282.815 233.33 282.865 232.977 282.93 232.516C283.074 231.558 283.275 230.168 283.541 228.395C284.073 224.815 284.892 219.635 285.92 213.245C287.976 200.457 290.959 182.821 294.323 163.348C297.687 143.883 300.721 126.254 302.841 113.481C303.898 107.105 304.746 101.94 305.342 98.3519C305.637 96.5797 305.867 95.1965 306.025 94.2383C306.104 93.7845 306.169 93.4242 306.212 93.1721C306.255 92.9344 306.291 92.8119 306.291 92.8119V92.8047Z" fill="#E0E0E0"/>
<path d="M286.812 124.705C286.812 124.705 287.02 124.928 287.329 125.375C287.645 125.822 288.077 126.477 288.609 127.291C289.665 128.927 291.067 131.218 292.562 133.782C294.021 136.311 295.344 138.595 296.364 140.36C296.817 141.138 297.205 141.801 297.529 142.348C297.802 142.816 297.946 143.083 297.924 143.097C297.903 143.112 297.716 142.874 297.4 142.435C297.083 141.988 296.652 141.332 296.127 140.511C295.085 138.869 293.719 136.556 292.224 133.991C290.743 131.477 289.406 129.201 288.379 127.45C287.918 126.672 287.53 126.009 287.207 125.469C286.934 125 286.797 124.734 286.819 124.712L286.812 124.705Z" fill="#E0E0E0"/>
<path d="M299.01 142.975C298.953 142.881 303.546 139.784 309.268 136.045C314.997 132.306 319.683 129.352 319.741 129.446C319.798 129.539 315.212 132.637 309.483 136.376C303.762 140.108 299.068 143.069 299.01 142.975Z" fill="#E0E0E0"/>
<path d="M292.497 172.642C292.497 172.642 292.777 172.512 293.309 172.347C293.92 172.159 294.668 171.929 295.552 171.662C297.442 171.079 300.059 170.272 302.905 169.271C305.759 168.276 308.311 167.289 310.151 166.569C311.014 166.23 311.74 165.942 312.336 165.712C312.854 165.51 313.148 165.416 313.156 165.438C313.17 165.459 312.897 165.611 312.394 165.856C311.898 166.101 311.164 166.432 310.259 166.828C308.44 167.621 305.896 168.651 303.035 169.645C300.174 170.647 297.543 171.417 295.624 171.929C294.668 172.181 293.884 172.376 293.345 172.491C292.806 172.613 292.504 172.664 292.497 172.642Z" fill="#E0E0E0"/>
<path d="M277.834 158.551C277.834 158.551 278.078 158.702 278.466 159.04C278.854 159.372 279.415 159.862 280.091 160.481C281.457 161.706 283.318 163.421 285.36 165.337C287.401 167.246 289.234 168.997 290.549 170.279C291.204 170.92 291.735 171.439 292.088 171.806C292.447 172.174 292.634 172.39 292.612 172.404C292.591 172.426 292.368 172.253 291.98 171.914C291.592 171.583 291.031 171.093 290.355 170.474C288.997 169.249 287.128 167.534 285.086 165.618C283.045 163.709 281.212 161.958 279.897 160.683C279.243 160.042 278.711 159.523 278.358 159.156C277.999 158.788 277.812 158.572 277.834 158.558V158.551Z" fill="#E0E0E0"/>
<path d="M268.77 184.01C268.77 184.01 269.072 184.219 269.575 184.644C270.128 185.127 270.826 185.746 271.667 186.481C273.421 188.045 275.829 190.22 278.467 192.648C281.105 195.076 283.484 197.288 285.187 198.901C285.992 199.672 286.661 200.321 287.193 200.832C287.66 201.293 287.912 201.56 287.89 201.581C287.869 201.603 287.588 201.372 287.085 200.947C286.532 200.465 285.834 199.845 284.993 199.11C283.239 197.547 280.831 195.364 278.193 192.944C275.555 190.516 273.183 188.304 271.473 186.69C270.667 185.919 269.999 185.271 269.467 184.759C269 184.298 268.748 184.032 268.77 184.01Z" fill="#E0E0E0"/>
<path d="M287.545 201.027C287.545 201.027 287.897 200.861 288.566 200.623C289.299 200.371 290.248 200.04 291.383 199.651C293.755 198.829 297.033 197.684 300.62 196.322C304.207 194.961 307.42 193.65 309.742 192.684C310.849 192.223 311.776 191.841 312.495 191.546C313.149 191.279 313.508 191.142 313.523 191.171C313.537 191.193 313.192 191.38 312.559 191.69C311.927 192 311.007 192.432 309.857 192.944C307.564 193.974 304.358 195.335 300.764 196.697C297.177 198.066 293.878 199.168 291.477 199.924C290.276 200.299 289.299 200.587 288.623 200.775C287.947 200.962 287.566 201.055 287.559 201.027H287.545Z" fill="#E0E0E0"/>
<path d="M56.2105 231.126C72.8077 221.638 78.1988 201.689 79.2411 183.412C79.4136 180.365 80.0461 177.188 78.8457 174.385C77.6453 171.583 74.4466 169.451 71.6073 170.481C69.2568 171.338 68.0349 173.874 66.5757 175.934C64.6349 178.672 61.9178 180.833 58.8341 182.094C56.8071 182.922 54.3631 183.319 52.5517 182.094C50.0647 180.408 50.0862 176.756 50.3809 173.73C50.9344 168.096 51.4807 162.462 52.0342 156.829C52.3289 153.803 52.6236 150.72 51.9479 147.759C51.2723 144.805 49.4393 141.945 46.6431 140.871C43.847 139.805 40.1451 141.138 39.2682 144.041C38.9016 145.252 39.0381 146.555 38.8369 147.802C38.6356 149.048 37.924 150.388 36.702 150.626C35.4657 150.871 34.3371 149.898 33.5177 148.933C30.6784 145.59 28.9245 141.462 27.3072 137.37C25.6899 133.278 24.1373 129.092 21.6142 125.505C19.0912 121.917 15.4253 118.913 11.1268 118.272C6.82837 117.631 1.97642 119.878 0.495679 124.035C-0.992253 128.199 1.09948 132.752 3.48592 136.455C7.02245 141.945 11.3497 146.908 16.2879 151.145C17.1792 151.908 18.1424 152.737 18.4012 153.889C18.8756 155.964 16.7839 157.794 14.7353 158.277C12.4135 158.824 9.99832 158.363 7.61906 158.421C5.23981 158.486 2.5946 159.285 1.50201 161.439C-0.0146742 164.415 2.26395 167.894 4.61445 170.25C9.30826 174.969 14.8071 178.859 20.7948 181.698C22.944 182.713 25.2083 183.643 26.8615 185.372C28.5076 187.101 29.3414 189.918 28.062 191.949C26.7825 193.981 23.9432 194.413 21.6574 193.765C19.3716 193.116 17.4092 191.661 15.2672 190.624C11.2634 188.671 5.87955 188.47 2.8965 191.82C0.934152 194.024 0.481303 197.295 1.10667 200.191C1.73203 203.087 3.29903 205.673 4.99542 208.087C10.9256 216.516 18.8612 223.59 28.177 227.819C37.4927 232.048 46.3269 233.77 56.2105 231.14" fill="#F5F5F5"/>
<path d="M55.2112 244.663C55.2112 237.386 54.4133 228.713 52.5588 219.282C50.7258 209.838 47.8578 199.658 44.4937 189.111C43.6455 186.481 42.8045 183.873 41.9707 181.309C41.1369 178.751 40.3103 176.215 39.3543 173.78C37.4566 168.91 35.2571 164.372 33.0359 160.128C30.8148 155.885 28.5578 151.937 26.4157 148.263C24.2665 144.589 22.1963 141.203 20.1837 138.199C16.1727 132.169 12.363 127.702 9.62437 124.741C8.25864 123.257 7.15886 122.14 6.4113 121.391C6.04471 121.038 5.76437 120.757 5.54873 120.548C5.35465 120.361 5.24683 120.267 5.23964 120.275C5.23246 120.275 5.3259 120.39 5.5056 120.592C5.70687 120.808 5.98002 121.103 6.32504 121.478C7.05104 122.249 8.12206 123.394 9.45904 124.9C12.1402 127.904 15.8852 132.392 19.8458 138.429C21.8369 141.441 23.8783 144.827 26.006 148.508C28.1265 152.189 30.3692 156.137 32.5759 160.38C34.7755 164.617 36.9606 169.148 38.8439 173.989C39.7927 176.41 40.6122 178.924 41.446 181.489C42.2726 184.054 43.1136 186.654 43.9618 189.284C47.3258 199.824 50.2011 209.974 52.0556 219.383C53.9317 228.785 54.7655 237.415 54.8158 244.67" fill="#E0E0E0"/>
<path d="M39.1959 173.744C39.2319 173.752 39.3756 173.305 39.6056 172.484C39.8429 171.662 40.1448 170.466 40.4898 168.975C41.1942 166 42.0208 161.865 42.9194 157.297C43.8179 152.73 44.702 148.616 45.4496 145.662C45.8161 144.185 46.1252 142.989 46.3553 142.168C46.5781 141.347 46.6787 140.886 46.6428 140.871C46.6068 140.857 46.4343 141.296 46.1468 142.103C45.8593 142.91 45.4855 144.085 45.0686 145.554C44.2204 148.494 43.2716 152.614 42.3731 157.182C41.4961 161.692 40.7054 165.769 40.1016 168.881C39.8213 170.286 39.5841 171.475 39.39 172.426C39.2247 173.262 39.1528 173.73 39.1887 173.737L39.1959 173.744Z" fill="#E0E0E0"/>
<path d="M1.05664 162.916C1.05664 162.952 1.59575 163.068 2.5877 163.248C3.57247 163.428 5.00289 163.68 6.76397 164.047C10.2861 164.761 15.1093 165.913 20.3782 167.419C25.6471 168.932 30.3552 170.509 33.7264 171.749C35.4156 172.354 36.7742 172.887 37.7158 173.24C38.6575 173.6 39.1822 173.787 39.1966 173.751C39.211 173.715 38.715 173.463 37.8021 173.038C36.8892 172.613 35.5522 172.03 33.8702 171.374C30.5206 170.034 25.8196 168.399 20.5291 166.879C15.2459 165.373 10.3868 164.271 6.83585 163.665C5.0604 163.348 3.6156 163.154 2.61645 163.039C1.61731 162.931 1.06383 162.887 1.05664 162.931V162.916Z" fill="#E0E0E0"/>
<path d="M52.1493 218.519C52.1493 218.519 52.2714 218.374 52.4583 218.072C52.674 217.705 52.9328 217.265 53.249 216.725C53.9319 215.55 54.8735 213.829 56.0164 211.689C58.2951 207.402 61.2565 201.387 64.4409 194.709C67.6252 188.023 70.5292 181.986 72.7143 177.663C73.7854 175.56 74.6623 173.831 75.3164 172.548C75.5968 171.994 75.8268 171.533 76.0209 171.151C76.179 170.827 76.2509 170.654 76.2293 170.646C76.2149 170.639 76.1071 170.791 75.9202 171.1C75.7046 171.468 75.4458 171.907 75.1295 172.448C74.4467 173.622 73.505 175.344 72.3621 177.483C70.0835 181.77 67.122 187.785 63.9377 194.471C60.7534 201.156 57.8566 207.186 55.6642 211.516C54.5932 213.62 53.7162 215.349 53.0621 216.631C52.7818 217.186 52.5518 217.647 52.3577 218.029C52.1996 218.353 52.1277 218.526 52.1493 218.533V218.519Z" fill="#E0E0E0"/>
<path d="M2.10547 197.122C2.10547 197.122 2.27079 197.23 2.59426 197.381C2.98241 197.554 3.46402 197.763 4.04625 198.023C5.39042 198.599 7.20182 199.377 9.40137 200.321C13.9227 202.266 20.1404 205.018 27.005 208.072C33.8696 211.127 40.1232 213.829 44.6876 215.68C46.9734 216.609 48.8208 217.337 50.1146 217.813C50.7112 218.029 51.2072 218.209 51.6026 218.353C51.9476 218.468 52.1273 218.526 52.1345 218.504C52.1345 218.483 51.9692 218.396 51.6457 218.245C51.2575 218.072 50.7759 217.863 50.1937 217.604C48.8495 217.027 47.0381 216.249 44.8386 215.305C40.3173 213.36 34.0996 210.608 27.2278 207.547C20.3632 204.492 14.1167 201.79 9.55232 199.939C7.26651 199.01 5.41917 198.282 4.12532 197.806C3.52871 197.59 3.03273 197.41 2.63739 197.266C2.29236 197.151 2.11266 197.093 2.10547 197.115V197.122Z" fill="#E0E0E0"/>
<path d="M107.239 13.8176V73.2813H22.0312L18.9619 14.2355L107.239 13.8176Z" fill="#E0E0E0"/>
<path d="M18.9619 14.2354L18.9619 73.1516H104.169V14.2354L18.9619 14.2354Z" fill="white"/>
<path d="M104.579 73.5623H18.5596V13.832H104.579V73.5623ZM19.3718 72.7554H103.774V14.6389H19.3646V72.7482L19.3718 72.7554Z" fill="#E0E0E0"/>
<path d="M94.9399 21.5549H28.1914V65.8321H94.9399V21.5549Z" fill="white"/>
<path d="M94.94 21.5549C94.94 21.5549 94.825 21.5621 94.6093 21.5693C94.3865 21.5693 94.0702 21.5693 93.6605 21.5837C92.8123 21.5837 91.5903 21.5981 89.9946 21.6053C86.7887 21.6197 82.1236 21.6341 76.2366 21.6557C64.4625 21.6773 47.8006 21.7134 28.1843 21.7494L28.3784 21.5549C28.3784 35.0844 28.3928 50.0764 28.3928 65.8248L28.1843 65.6159C53.3641 65.6303 76.5816 65.6447 94.9328 65.6591L94.7675 65.8248C94.8034 52.3529 94.8322 41.3017 94.8537 33.6075C94.8753 29.7605 94.8897 26.7563 94.8969 24.6959C94.904 23.6801 94.9112 22.8949 94.9184 22.3545C94.9184 21.8214 94.94 21.5405 94.94 21.5405C94.94 21.5405 94.9544 21.7998 94.9615 22.3185C94.9615 22.8516 94.9687 23.6225 94.9831 24.6311C94.9903 26.6843 95.0047 29.674 95.0262 33.4995C95.0478 41.2152 95.0766 52.3025 95.1125 65.8176V65.9833H94.9472C76.5888 65.9977 53.3785 66.0122 28.1987 66.0266H27.9902V65.8176C27.9902 50.0548 28.0046 35.07 28.0046 21.5405V21.3459H28.1987C47.8653 21.382 64.5775 21.418 76.3804 21.4396C82.2458 21.4612 86.8965 21.4828 90.0952 21.49C91.6694 21.4972 92.8842 21.5116 93.7252 21.5116C94.1277 21.5116 94.4296 21.5188 94.6524 21.5261C94.8609 21.5261 94.9615 21.5405 94.9615 21.5405L94.94 21.5549Z" fill="#E0E0E0"/>
<path d="M18.9619 14.0697C18.9979 14.0264 19.5513 14.3866 20.4283 15.0206C21.298 15.6546 22.4841 16.5479 23.7707 17.5709C25.0502 18.6011 26.1787 19.5737 26.9766 20.3013C27.7673 21.0289 28.2345 21.5116 28.1986 21.5548C28.1195 21.6413 26.0709 19.9483 23.512 17.9023C20.953 15.8563 18.8972 14.1633 18.9691 14.0697H18.9619Z" fill="#E0E0E0"/>
<path d="M104.17 14.2354C104.242 14.3291 102.236 16.0365 99.6845 18.0609C97.1327 20.0853 95.0122 21.6486 94.9403 21.5549C94.8685 21.4613 96.8739 19.7539 99.4257 17.7295C101.97 15.7051 104.098 14.1418 104.17 14.2354Z" fill="#E0E0E0"/>
<path d="M104.104 73.1662C100.934 70.5943 97.7715 68.0223 94.6016 65.4504Z" fill="white"/>
<path d="M94.6018 65.4432C94.6737 65.3496 96.8589 67.0066 99.4825 69.139C102.106 71.2715 104.176 73.0725 104.097 73.159C104.025 73.2526 101.84 71.5956 99.2165 69.4632C96.5929 67.3307 94.5227 65.5297 94.6018 65.4432Z" fill="#E0E0E0"/>
<path d="M18.9619 73.1517C18.89 73.058 20.8739 71.365 23.3969 69.3695C25.9199 67.3667 28.026 65.825 28.0979 65.9114C28.1698 65.9979 26.1859 67.6981 23.6629 69.7008C21.1398 71.7036 19.0409 73.2453 18.9619 73.1589V73.1517Z" fill="#E0E0E0"/>
<path d="M41.7412 35.3509V50.1772H83.7411V35.3509H41.7412Z" fill="#E0E0E0"/>
<path d="M303.997 0H258.439V66.1852H303.997V0Z" fill="#E0E0E0"/>
<path d="M301.719 0H256.161V66.1852H301.719V0Z" fill="#F5F5F5"/>
<path d="M296.055 7.16797H261.818V59.0168H296.055V7.16797Z" fill="white"/>
<path d="M296.055 59.0168C296.055 59.0168 296.055 58.9304 296.055 58.7647C296.055 58.5918 296.055 58.3468 296.055 58.0299C296.055 57.3815 296.048 56.4233 296.041 55.1842C296.041 52.6987 296.026 49.075 296.012 44.5003C295.997 35.3581 295.976 22.4121 295.954 7.16801L296.069 7.28327C285.611 7.28327 274.016 7.28327 261.833 7.29048L261.955 7.16801C261.948 26.7275 261.933 44.7597 261.933 59.0168L261.833 58.916C272.262 58.9376 280.809 58.9592 286.754 58.9664C289.729 58.9808 292.051 58.988 293.64 58.9952C294.43 58.9952 295.034 59.0024 295.444 59.0096C295.854 59.0096 296.069 59.0168 296.069 59.0168C296.069 59.0168 295.868 59.0168 295.466 59.024C295.056 59.024 294.459 59.024 293.676 59.0384C292.094 59.0384 289.78 59.0529 286.811 59.0601C280.852 59.0745 272.284 59.0889 261.825 59.1105H261.725V59.0096C261.725 44.7525 261.71 26.7203 261.703 7.1608V7.03833H261.825C274.009 7.03833 285.596 7.03833 296.062 7.04553H296.177V7.1608C296.156 22.4338 296.134 35.4086 296.12 44.5724C296.105 49.1326 296.098 52.7492 296.091 55.2274C296.091 56.4593 296.084 57.4031 296.077 58.0515C296.077 58.3685 296.077 58.6062 296.077 58.7719C296.077 58.9304 296.077 59.0096 296.077 59.0096L296.055 59.0168Z" fill="#E0E0E0"/>
<path d="M301.841 -0.000163594C301.841 -0.000163594 301.561 0.475315 301.029 1.18133C300.497 1.88734 299.75 2.85271 298.894 3.89732C298.039 4.94194 297.234 5.86408 296.644 6.51966C296.055 7.17525 295.667 7.56427 295.645 7.54266C295.617 7.52105 295.954 7.0888 296.515 6.40439C297.126 5.66236 297.881 4.74742 298.707 3.73883C299.534 2.73024 300.289 1.8153 300.9 1.07327C301.46 0.388865 301.82 -0.0217763 301.849 -0.000163594H301.841Z" fill="#E0E0E0"/>
<path d="M296.228 58.8513C297.931 61.5601 299.937 64.0744 302.201 66.3365Z" fill="white"/>
<path d="M302.201 66.3365C302.201 66.3365 301.77 66.0051 301.159 65.3856C300.548 64.766 299.736 63.8799 298.909 62.8425C298.082 61.8051 297.392 60.8109 296.925 60.0761C296.458 59.3412 296.206 58.8657 296.228 58.8513C296.257 58.8297 296.566 59.2764 297.069 59.9824C297.572 60.6884 298.276 61.6538 299.103 62.6912C299.93 63.7214 300.713 64.6291 301.288 65.2703C301.863 65.9187 302.23 66.3149 302.201 66.3365Z" fill="#E0E0E0"/>
<path d="M256.154 66.1349C258.145 63.6783 260.129 61.2145 262.12 58.7578Z" fill="white"/>
<path d="M262.12 58.7504C262.171 58.7936 260.884 60.4794 259.231 62.5182C257.585 64.557 256.204 66.1707 256.147 66.1275C256.097 66.0843 257.383 64.3985 259.037 62.3597C260.683 60.3209 262.063 58.7071 262.113 58.7504H262.12Z" fill="#E0E0E0"/>
<path d="M256.162 -9.73991e-05C256.212 -0.0433228 257.513 1.51279 259.058 3.47234C260.604 5.43189 261.812 7.05284 261.761 7.09607C261.711 7.13929 260.41 5.58318 258.864 3.62363C257.319 1.66408 256.111 0.043128 256.162 -9.73991e-05Z" fill="#E0E0E0"/>
<path d="M285.388 17.6936H273.923V50.3143H285.388V17.6936Z" fill="#E0E0E0"/>
<path d="M313.602 269.813C313.602 269.914 243.583 270 157.225 270C70.8674 270 0.833984 269.914 0.833984 269.813C0.833984 269.712 70.8387 269.625 157.225 269.625C243.611 269.625 313.602 269.712 313.602 269.813Z" fill="#263238"/>
<path d="M225.748 145.151C226.87 149.473 225.375 154.365 222.039 157.326C219.847 159.271 216.993 160.395 214.995 162.535C212.422 165.294 211.681 169.508 212.81 173.11C213.931 176.713 216.763 179.652 220.163 181.28C224.792 183.499 230.5 183.304 234.971 180.776C240.527 177.628 243.769 171.317 244.588 164.97C245.408 158.623 244.121 152.197 242.446 146.023" fill="#263238"/>
<path d="M295.825 257.061C301.576 256.117 306.967 257.875 312.66 259.143C314.191 259.482 315.801 259.777 317.325 259.395C319.79 258.769 321.544 256.355 321.925 253.834C322.256 251.651 321.688 249.36 320.473 247.516C319.956 246.738 319.316 246.017 318.504 245.556C317.67 245.081 316.707 244.9 315.751 244.807C312.286 244.468 308.764 245.246 305.608 246.723C302.453 248.2 299.656 250.368 297.198 252.832C295.991 254.043 296.357 255.433 295.825 257.061Z" fill="#263238"/>
<path d="M179.205 164.048C178.285 158.579 178.4 152.939 179.536 147.507C180.09 144.863 180.902 142.233 182.375 139.978C182.915 139.157 183.576 138.357 184.482 137.997C185.739 137.493 187.235 137.961 188.226 138.883C189.52 140.086 190.059 141.952 190.002 143.717C189.944 145.489 189.369 147.197 188.722 148.847C186.494 154.538 182.994 159.264 179.198 164.048" fill="#263238"/>
<path d="M290.643 184.875C291.951 185.804 320.869 248.193 320.869 248.193C318.547 247.192 315.974 246.939 313.501 247.465L311.934 247.883C309.131 248.632 306.464 249.85 304.056 251.485L295.818 257.076C295.157 256.701 294.718 256.017 294.647 255.253L294.625 255.015L272.22 216.473L290.643 184.882V184.875Z" fill="#8639D8"/>
<path d="M182.182 85.5862L189.888 129.482C192.368 135.389 221.292 171.18 221.292 171.18L211.725 201.97L173.743 149.92C170.214 146.138 168.295 141.131 168.395 135.958L169.876 89.0586L182.182 85.5862Z" fill="#FFBE9D"/>
<path d="M223.182 164.3L243.014 165.805L260.309 168.493C260.309 168.493 290.635 176.482 290.635 179.81C290.635 180.92 282.347 207.352 277.733 223.187C275.742 230.024 274.944 234.879 274.944 234.879L290.635 269.806H216.016V237.776C216.016 237.776 211.006 195.761 211.868 190.019C212.731 184.277 223.175 164.292 223.175 164.292L223.182 164.3Z" fill="#8639D8"/>
<path d="M172.794 67.8495C172.909 63.3828 173.362 58.9162 174.152 54.5144C174.268 53.8877 174.519 53.1312 175.144 53.052C175.921 52.9511 176.316 53.9525 176.417 54.7234C177.107 60.0185 176.884 65.4288 175.763 70.6519" fill="#EB996E"/>
<path d="M181.614 160.798C190.125 153.176 190.412 139.971 189.686 129.46C189.636 128.682 189.578 127.839 190.017 127.205C190.829 126.045 192.806 126.47 193.597 127.652C194.387 128.826 194.344 130.353 194.272 131.772C194.711 130.569 196.58 130.577 197.457 131.506C198.334 132.435 198.484 133.811 198.585 135.086C198.679 136.261 198.772 137.435 198.865 138.609L223.722 162.354C223.722 162.354 224.405 160.222 226.23 161.439C228.056 162.657 229.235 165.308 229.235 165.308L211.718 203.635L179.206 163.99C179.206 163.99 180.227 162.045 181.614 160.805V160.798Z" fill="#8639D8"/>
<path d="M215.347 187.317C212.832 190.682 210.733 194.413 209.64 198.476C208.548 202.54 208.519 206.949 210.007 210.882C212.113 216.422 217.331 220.644 223.175 221.544" fill="#8639D8"/>
<path d="M295.825 257.061L294.884 269.813H313.307L317.627 247.299C312.013 246.982 306.478 248.726 302.05 252.191L295.825 257.068V257.061Z" fill="#FFBE9D"/>
<path d="M190.269 157.974C190.269 157.974 190.391 157.6 190.671 156.966C190.959 156.332 191.347 155.395 191.785 154.228C192.231 153.061 192.691 151.649 193.129 150.064C193.546 148.472 193.934 146.7 194.215 144.819C194.481 142.939 194.617 141.124 194.668 139.481C194.704 137.831 194.668 136.347 194.567 135.101C194.481 133.855 194.373 132.853 194.279 132.162C194.193 131.47 194.157 131.081 194.179 131.074C194.208 131.074 194.287 131.448 194.423 132.133C194.56 132.817 194.711 133.826 194.833 135.079C194.962 136.326 195.027 137.824 195.013 139.488C194.977 141.152 194.855 142.975 194.589 144.877C194.308 146.772 193.906 148.558 193.467 150.158C193.007 151.757 192.518 153.169 192.037 154.329C191.562 155.489 191.138 156.411 190.808 157.031C190.484 157.65 190.297 157.989 190.269 157.982V157.974Z" fill="#263238"/>
<path d="M195.688 151.289C195.638 151.26 195.983 150.583 196.457 149.459C196.931 148.335 197.506 146.75 197.923 144.942C198.34 143.134 198.52 141.455 198.577 140.238C198.642 139.02 198.628 138.264 198.685 138.256C198.728 138.256 198.836 139.013 198.843 140.245C198.843 141.477 198.707 143.191 198.283 145.028C197.859 146.865 197.233 148.465 196.687 149.574C196.148 150.684 195.717 151.318 195.681 151.296L195.688 151.289Z" fill="#263238"/>
<path d="M224.886 171.209C224.829 171.173 225.13 170.704 225.303 169.861C225.49 169.018 225.476 167.801 225.116 166.526C224.757 165.251 224.218 164.148 223.865 163.342C223.506 162.535 223.319 162.009 223.369 161.994C223.42 161.973 223.686 162.448 224.103 163.226C224.512 164.012 225.095 165.099 225.476 166.425C225.849 167.758 225.821 169.054 225.562 169.926C225.31 170.805 224.915 171.237 224.886 171.216V171.209Z" fill="#263238"/>
<path d="M220.559 221.962C220.559 221.962 220.444 221.912 220.25 221.789C220.02 221.638 219.739 221.451 219.402 221.227C218.668 220.73 217.612 219.995 216.361 219.016C215.117 218.029 213.673 216.782 212.329 215.147C210.992 213.519 209.791 211.444 209.209 209.059C208.605 206.682 208.562 204.312 208.799 202.215C209.036 200.112 209.532 198.268 210.028 196.755C210.531 195.242 211.035 194.06 211.401 193.246C211.588 192.843 211.732 192.533 211.84 192.324C211.948 192.115 212.005 192.007 212.019 192.014C212.048 192.029 211.861 192.483 211.538 193.304C211.214 194.132 210.754 195.328 210.287 196.834C209.827 198.347 209.36 200.177 209.151 202.251C208.936 204.319 208.993 206.639 209.583 208.966C210.151 211.3 211.308 213.317 212.609 214.931C213.917 216.552 215.326 217.805 216.541 218.807C217.763 219.808 218.791 220.572 219.495 221.112C219.818 221.357 220.084 221.566 220.307 221.732C220.487 221.876 220.58 221.955 220.573 221.969L220.559 221.962Z" fill="#263238"/>
<path d="M261.28 229.087C261.28 229.087 261.172 229.138 260.963 229.202C260.748 229.26 260.439 229.368 260.029 229.447C259.21 229.635 258.009 229.829 256.507 229.872C253.531 229.981 249.24 229.296 245.322 226.811C241.405 224.325 238.946 220.737 237.768 217.993C237.164 216.617 236.819 215.442 236.639 214.621C236.538 214.218 236.495 213.886 236.459 213.67C236.423 213.454 236.416 213.339 236.423 213.332C236.452 213.332 236.553 213.778 236.776 214.578C236.998 215.378 237.379 216.53 238.005 217.877C239.227 220.557 241.678 224.051 245.516 226.494C249.355 228.922 253.553 229.642 256.5 229.606C257.98 229.599 259.181 229.447 260 229.303C260.82 229.159 261.273 229.058 261.28 229.087Z" fill="#263238"/>
<path d="M272.723 243.085C272.623 243.056 273.571 239.079 274.844 234.195C276.116 229.31 277.23 225.37 277.331 225.399C277.431 225.427 276.482 229.404 275.21 234.296C273.938 239.18 272.824 243.121 272.723 243.092V243.085Z" fill="#263238"/>
<path d="M282.779 234.634C282.692 234.685 279.803 229.952 276.324 224.059C272.845 218.166 270.106 213.346 270.192 213.296C270.279 213.245 273.168 217.978 276.647 223.871C280.119 229.764 282.865 234.584 282.779 234.634Z" fill="#263238"/>
<path d="M310.338 246.298C310.345 246.37 309.288 246.457 307.65 246.875C306.83 247.076 305.874 247.393 304.839 247.811C303.811 248.243 302.711 248.798 301.619 249.475C300.533 250.174 299.57 250.93 298.736 251.673C297.917 252.429 297.22 253.164 296.688 253.819C295.61 255.123 295.078 256.038 295.02 256.002C294.999 255.988 295.114 255.75 295.351 255.332C295.581 254.907 295.962 254.331 296.479 253.646C296.997 252.962 297.68 252.198 298.499 251.413C299.333 250.642 300.311 249.857 301.418 249.151C302.532 248.452 303.653 247.905 304.71 247.48C305.766 247.069 306.751 246.781 307.592 246.608C308.433 246.428 309.116 246.334 309.598 246.305C310.072 246.269 310.338 246.262 310.338 246.291V246.298Z" fill="#263238"/>
<path d="M313.86 241.961C313.86 242.041 312.703 241.896 310.863 242.055C309.943 242.127 308.858 242.314 307.672 242.617C306.5 242.941 305.228 243.395 303.97 244.022C302.712 244.663 301.59 245.405 300.627 246.154C299.678 246.925 298.881 247.681 298.27 248.38C297.04 249.763 296.465 250.772 296.401 250.729C296.379 250.714 296.516 250.462 296.782 250.008C296.911 249.778 297.076 249.504 297.306 249.209C297.529 248.906 297.759 248.553 298.075 248.2C298.665 247.473 299.463 246.673 300.419 245.88C301.389 245.102 302.525 244.332 303.804 243.683C305.091 243.049 306.385 242.595 307.592 242.278C308.8 241.99 309.914 241.824 310.849 241.788C311.316 241.745 311.74 241.767 312.114 241.774C312.488 241.774 312.804 241.803 313.063 241.832C313.58 241.889 313.868 241.932 313.868 241.961H313.86Z" fill="#263238"/>
<path d="M202.201 172.599C202.1 172.584 202.431 170.012 202.934 166.864C203.444 163.716 203.94 161.173 204.041 161.187C204.141 161.202 203.811 163.774 203.308 166.922C202.797 170.07 202.301 172.613 202.201 172.599Z" fill="#FAFAFA"/>
<path d="M194.625 171C194.531 171.064 193.295 169.328 191.591 167.34C189.888 165.344 188.371 163.86 188.443 163.781C188.508 163.709 190.154 165.085 191.872 167.102C193.597 169.105 194.704 170.949 194.625 171Z" fill="#FAFAFA"/>
<path d="M201.123 152.449C201.166 152.478 200.857 152.975 200.311 153.745C199.764 154.516 198.974 155.547 198.039 156.642C197.112 157.737 196.22 158.688 195.552 159.358C194.884 160.02 194.445 160.402 194.409 160.366C194.33 160.287 195.904 158.587 197.752 156.397C199.606 154.214 201.029 152.384 201.116 152.449H201.123Z" fill="#FAFAFA"/>
<path d="M198.585 143.378C198.485 143.422 198.075 142.5 197.277 141.592C196.494 140.67 195.645 140.137 195.703 140.036C195.739 139.949 196.724 140.367 197.565 141.347C198.413 142.319 198.679 143.357 198.593 143.378H198.585Z" fill="#FAFAFA"/>
<path d="M192.037 148.969C192.051 149.07 191.217 149.286 190.168 149.459C189.118 149.625 188.256 149.675 188.241 149.574C188.227 149.473 189.061 149.257 190.11 149.084C191.16 148.919 192.022 148.868 192.037 148.969Z" fill="#FAFAFA"/>
<path d="M208.569 156.973C208.454 156.958 208.734 155.438 208.332 153.623C207.951 151.8 207.067 150.532 207.16 150.475C207.218 150.403 208.289 151.635 208.691 153.544C209.115 155.453 208.648 157.016 208.562 156.973H208.569Z" fill="#FAFAFA"/>
<path d="M217.411 166.497C217.31 166.555 216.555 165.027 215.096 163.572C213.651 162.102 212.135 161.332 212.192 161.231C212.221 161.144 213.86 161.778 215.362 163.305C216.871 164.818 217.497 166.468 217.411 166.497Z" fill="#FAFAFA"/>
<path d="M203.228 183.023C203.264 183.11 201.798 183.643 199.907 183.571C198.017 183.513 196.594 182.879 196.637 182.8C196.673 182.692 198.103 183.146 199.922 183.196C201.74 183.268 203.199 182.915 203.228 183.023Z" fill="#FAFAFA"/>
<path d="M209.885 186.445C209.784 186.409 210.345 184.745 210.812 182.642C211.287 180.538 211.488 178.802 211.596 178.809C211.689 178.809 211.653 180.596 211.172 182.728C210.697 184.86 209.971 186.489 209.885 186.445Z" fill="#FAFAFA"/>
<path d="M224.419 187C224.34 187.072 222.938 185.646 221.277 183.823C219.617 182.001 218.337 180.466 218.417 180.394C218.496 180.322 219.897 181.748 221.558 183.571C223.211 185.394 224.498 186.928 224.419 187Z" fill="#FAFAFA"/>
<path d="M231.197 203.836C231.125 203.908 230.076 202.943 228.854 201.675C227.632 200.407 226.704 199.327 226.776 199.255C226.848 199.182 227.898 200.148 229.12 201.416C230.342 202.684 231.269 203.764 231.197 203.836Z" fill="#FAFAFA"/>
<path d="M218.604 205.443C218.669 205.515 217.468 206.632 215.736 207.633C214.004 208.649 212.444 209.139 212.415 209.045C212.372 208.944 213.845 208.303 215.549 207.309C217.253 206.322 218.539 205.356 218.611 205.443H218.604Z" fill="#FAFAFA"/>
<path d="M224.405 221.458C224.297 221.429 224.728 219.542 224.944 217.164C225.167 214.794 225.095 212.856 225.21 212.849C225.303 212.835 225.548 214.794 225.318 217.2C225.102 219.607 224.498 221.487 224.405 221.458Z" fill="#FAFAFA"/>
<path d="M246.184 208.433C246.127 208.512 244.589 207.431 243.072 205.688C241.548 203.952 240.693 202.28 240.772 202.237C240.865 202.18 241.857 203.743 243.352 205.443C244.84 207.158 246.249 208.346 246.177 208.433H246.184Z" fill="#FAFAFA"/>
<path d="M254.148 215.233C254.062 215.169 255.155 213.67 256.369 211.747C257.599 209.823 258.49 208.209 258.591 208.253C258.677 208.296 257.929 210.003 256.686 211.948C255.457 213.893 254.22 215.298 254.148 215.233Z" fill="#FAFAFA"/>
<path d="M252.977 198.606C252.949 198.707 251.317 198.354 249.326 197.821C247.335 197.288 245.746 196.769 245.768 196.668C245.797 196.567 247.428 196.92 249.419 197.454C251.41 197.987 252.999 198.505 252.977 198.606Z" fill="#FAFAFA"/>
<path d="M247.176 227.87C247.076 227.87 247.076 226.335 247.191 224.455C247.299 222.575 247.471 221.055 247.579 221.062C247.679 221.062 247.679 222.596 247.564 224.477C247.457 226.357 247.284 227.877 247.176 227.87Z" fill="#FAFAFA"/>
<path d="M252.194 237.891C252.086 237.84 252.841 236.349 253.1 234.339C253.38 232.336 253.042 230.694 253.157 230.672C253.244 230.636 253.754 232.3 253.466 234.39C253.193 236.479 252.259 237.948 252.187 237.891H252.194Z" fill="#FAFAFA"/>
<path d="M239.19 235.679C239.097 235.694 238.874 234.001 239.27 231.955C239.658 229.909 240.491 228.417 240.571 228.468C240.671 228.511 240.01 230.038 239.636 232.027C239.248 234.015 239.298 235.672 239.19 235.679Z" fill="#FAFAFA"/>
<path d="M227.33 240.758C227.258 240.837 225.799 239.591 223.952 238.129C222.104 236.659 220.566 235.528 220.624 235.441C220.681 235.355 222.327 236.356 224.182 237.833C226.043 239.303 227.395 240.679 227.323 240.751L227.33 240.758Z" fill="#FAFAFA"/>
<path d="M235.367 226.623C235.417 226.717 233.527 227.812 231.155 229.08C228.775 230.348 226.813 231.292 226.763 231.205C226.712 231.112 228.603 230.017 230.975 228.749C233.354 227.488 235.317 226.537 235.367 226.623Z" fill="#FAFAFA"/>
<path d="M260.316 258.337C260.316 258.337 260.158 258.387 259.849 258.459C259.54 258.517 259.087 258.632 258.498 258.711C257.319 258.906 255.587 259.071 253.444 259.035C251.302 259.006 248.751 258.711 246.005 257.984C243.266 257.263 240.348 256.067 237.559 254.338C234.784 252.588 232.434 250.484 230.579 248.33C228.725 246.176 227.337 244.007 226.374 242.091C225.404 240.175 224.793 238.546 224.448 237.401C224.254 236.832 224.16 236.378 224.081 236.075C224.002 235.773 223.973 235.607 223.981 235.607C223.995 235.607 224.052 235.758 224.153 236.061C224.261 236.356 224.376 236.803 224.584 237.365C224.973 238.496 225.612 240.095 226.604 241.983C227.596 243.863 228.991 245.996 230.838 248.114C232.685 250.232 235.014 252.299 237.753 254.028C240.506 255.736 243.381 256.924 246.091 257.659C248.801 258.394 251.324 258.718 253.444 258.783C255.565 258.855 257.29 258.726 258.469 258.581C259.066 258.531 259.518 258.437 259.827 258.401C260.137 258.358 260.302 258.344 260.309 258.358L260.316 258.337Z" fill="#263238"/>
<path d="M238.838 254.612C238.752 254.641 238.479 253.034 239.176 251.204C239.852 249.374 241.11 248.337 241.153 248.416C241.239 248.495 240.161 249.598 239.521 251.334C238.86 253.063 238.953 254.605 238.831 254.605L238.838 254.612Z" fill="#FAFAFA"/>
<path d="M232.922 252.134C232.973 252.235 231.894 252.76 231.053 253.913C230.191 255.051 229.99 256.24 229.875 256.218C229.781 256.233 229.817 254.922 230.751 253.69C231.664 252.451 232.908 252.04 232.922 252.134Z" fill="#FAFAFA"/>
<path d="M255.665 265.706C255.665 265.8 254.026 265.67 252.359 264.611C250.677 263.567 249.836 262.155 249.922 262.111C250.015 262.039 250.95 263.3 252.56 264.287C254.156 265.296 255.701 265.584 255.673 265.699L255.665 265.706Z" fill="#FAFAFA"/>
<path d="M259.209 245.751C259.303 245.751 259.094 247.249 257.923 248.625C256.765 250.008 255.313 250.455 255.306 250.361C255.256 250.261 256.55 249.684 257.642 248.38C258.749 247.091 259.109 245.715 259.216 245.751H259.209Z" fill="#FAFAFA"/>
<path d="M269.265 260.627C269.179 260.555 270.128 259.352 271.005 257.695C271.889 256.038 272.349 254.576 272.457 254.612C272.55 254.633 272.241 256.175 271.335 257.875C270.437 259.575 269.337 260.699 269.265 260.634V260.627Z" fill="#FAFAFA"/>
<path d="M282.549 262.594C282.592 262.702 281.284 263.221 279.968 264.309C278.639 265.382 277.869 266.564 277.776 266.499C277.69 266.463 278.351 265.144 279.731 264.02C281.111 262.889 282.535 262.508 282.549 262.601V262.594Z" fill="#FAFAFA"/>
<path d="M272.414 245.527C272.306 245.563 271.673 243.452 270.351 241.118C269.042 238.777 267.569 237.149 267.655 237.069C267.691 237.041 268.101 237.401 268.683 238.078C269.265 238.748 269.998 239.749 270.674 240.938C271.342 242.127 271.81 243.272 272.083 244.122C272.356 244.972 272.457 245.513 272.406 245.527H272.414Z" fill="#FAFAFA"/>
<path d="M274.405 224.073C274.426 224.174 272.902 224.613 270.998 225.053C269.093 225.492 267.526 225.766 267.504 225.665C267.483 225.564 269.006 225.125 270.911 224.686C272.816 224.246 274.383 223.972 274.405 224.073Z" fill="#FAFAFA"/>
<path d="M268.287 217.669C268.208 217.733 267.223 216.595 266.088 215.14C264.952 213.677 264.104 212.438 264.183 212.381C264.262 212.316 265.247 213.447 266.382 214.909C267.518 216.372 268.366 217.611 268.287 217.669Z" fill="#FAFAFA"/>
<path d="M283.44 213.814C283.433 213.915 281.866 213.814 279.997 213.368C278.121 212.928 276.683 212.309 276.719 212.215C276.755 212.114 278.236 212.561 280.083 213C281.931 213.44 283.455 213.706 283.44 213.814Z" fill="#FAFAFA"/>
<path d="M294.215 213.627C294.121 213.577 294.711 212.273 295.315 210.623C295.918 208.973 296.307 207.597 296.414 207.619C296.508 207.64 296.285 209.074 295.667 210.753C295.056 212.431 294.301 213.677 294.215 213.627Z" fill="#FAFAFA"/>
<path d="M291.785 228.266C291.764 228.36 290.268 227.985 288.651 227.012C287.027 226.054 285.984 224.916 286.056 224.851C286.128 224.772 287.264 225.759 288.845 226.688C290.419 227.632 291.821 228.158 291.785 228.266Z" fill="#FAFAFA"/>
<path d="M298.794 227.819C298.693 227.798 299.045 225.881 299.584 223.54C300.123 221.198 300.641 219.318 300.742 219.347C300.842 219.369 300.49 221.285 299.951 223.626C299.412 225.968 298.894 227.841 298.794 227.819Z" fill="#FAFAFA"/>
<path d="M292.943 244.187C292.857 244.245 291.721 242.826 290.398 241.017C289.076 239.202 288.077 237.689 288.156 237.624C288.242 237.567 289.378 238.979 290.7 240.794C292.023 242.602 293.022 244.122 292.943 244.187Z" fill="#FAFAFA"/>
<path d="M302.927 237.927C302.826 237.97 302.172 236.673 301.137 235.218C300.109 233.755 299.103 232.704 299.182 232.624C299.247 232.552 300.39 233.503 301.446 235.002C302.503 236.493 303.021 237.891 302.934 237.927H302.927Z" fill="#FAFAFA"/>
<path d="M312.286 236.522C312.193 236.58 311.251 235.168 309.986 233.511C308.721 231.847 307.607 230.571 307.686 230.492C307.757 230.42 309.001 231.602 310.281 233.28C311.56 234.959 312.372 236.472 312.286 236.522Z" fill="#FAFAFA"/>
<path d="M310.086 242.739C309.971 242.739 310.05 241.493 309.231 240.283C308.44 239.051 307.269 238.626 307.312 238.525C307.326 238.482 307.642 238.525 308.095 238.748C308.548 238.971 309.116 239.418 309.547 240.074C309.978 240.729 310.165 241.428 310.194 241.932C310.223 242.437 310.137 242.746 310.093 242.739H310.086Z" fill="#FAFAFA"/>
<path d="M302.783 251.262C302.726 251.247 302.748 251.067 302.69 250.815C302.64 250.563 302.489 250.224 302.194 249.987C301.899 249.756 301.533 249.699 301.274 249.706C301.015 249.706 300.843 249.771 300.821 249.72C300.792 249.684 300.929 249.526 301.238 249.439C301.533 249.353 302.022 249.374 302.431 249.684C302.834 250.001 302.97 250.469 302.956 250.779C302.949 251.096 302.827 251.269 302.783 251.247V251.262Z" fill="#FAFAFA"/>
<path d="M228.006 264.885C227.985 264.971 226.116 264.265 224.419 262.544C222.701 260.836 221.997 258.963 222.083 258.949C222.184 258.891 223.025 260.634 224.685 262.284C226.324 263.948 228.064 264.784 228.013 264.885H228.006Z" fill="#FAFAFA"/>
<path d="M182.247 86.0761C181.097 75.1185 179.005 64.8164 178.437 54.0677C178.408 53.5274 178.351 52.9222 177.927 52.5836C177.352 52.1226 176.439 52.49 176.065 53.124C175.691 53.7579 175.698 54.536 175.698 55.2708C175.72 60.9694 174.75 66.6679 172.852 72.0423C171.616 75.5291 169.991 78.8863 169.057 82.4668C168.122 86.0473 169.869 87.2648 171.472 90.5931" fill="#FFBE9D"/>
<path d="M145.544 42.6779C145.479 42.7571 141.432 39.4576 136.515 35.3151C131.592 31.1655 127.66 27.7435 127.724 27.6642C127.789 27.585 131.836 30.8773 136.753 35.027C141.669 39.1694 145.608 42.5986 145.544 42.6779Z" fill="#263238"/>
<path d="M166.037 37.743C165.937 37.743 165.527 31.3456 165.132 23.4426C164.736 15.5396 164.492 9.12781 164.6 9.12061C164.7 9.12061 165.11 15.518 165.505 23.421C165.901 31.324 166.145 37.7358 166.037 37.743Z" fill="#263238"/>
<path d="M152.984 33.1682C152.883 33.1971 151.625 29.5445 150.166 25.0059C148.707 20.4672 147.607 16.7642 147.708 16.7282C147.808 16.6994 149.066 20.3519 150.525 24.8906C151.984 29.4292 153.084 33.1322 152.984 33.1682Z" fill="#263238"/>
<path d="M141.354 49.4355C141.311 49.5292 138.831 48.4773 135.805 47.0941C132.786 45.7037 130.371 44.5078 130.414 44.407C130.457 44.3133 132.937 45.3579 135.963 46.7483C138.982 48.1387 141.397 49.3347 141.354 49.4283V49.4355Z" fill="#263238"/>
<path d="M122.434 41.1577C122.42 41.2586 121.823 41.273 121.097 41.1793C120.371 41.0857 119.796 40.9344 119.811 40.8263C119.825 40.7255 120.422 40.711 121.148 40.8047C121.874 40.8984 122.449 41.0496 122.434 41.1577Z" fill="#263238"/>
<path d="M148.175 12.0816C148.075 12.0816 147.988 11.4908 147.988 10.7632C147.988 10.0356 148.075 9.44482 148.175 9.44482C148.276 9.44482 148.362 10.0356 148.362 10.7632C148.362 11.4908 148.276 12.0816 148.175 12.0816Z" fill="#263238"/>
<path d="M191.469 22.254C191.548 22.326 188.227 26.137 184.065 30.7694C179.896 35.4017 176.46 39.1046 176.381 39.0326C176.302 38.9606 179.616 35.1495 183.785 30.5172C187.954 25.8849 191.39 22.1819 191.469 22.254Z" fill="#263238"/>
<path d="M196.745 17.0165C196.817 17.0886 196.436 17.5929 195.889 18.1332C195.343 18.6735 194.847 19.0625 194.775 18.9905C194.703 18.9185 195.084 18.4142 195.631 17.8738C196.177 17.3263 196.673 16.9445 196.745 17.0165Z" fill="#263238"/>
<path d="M209.554 35.4593C209.554 35.4593 209.216 35.6898 208.576 36.0428C207.936 36.3958 207.002 36.8929 205.83 37.4765C203.494 38.658 200.231 40.1997 196.543 41.727C192.856 43.2543 189.463 44.4862 186.976 45.3075C185.733 45.7181 184.726 46.0351 184.022 46.2368C183.317 46.4385 182.929 46.5394 182.922 46.5178C182.915 46.4962 183.289 46.3449 183.979 46.0999C184.726 45.8334 185.711 45.4804 186.89 45.0553C189.348 44.1692 192.719 42.9012 196.4 41.3739C200.073 39.8467 203.35 38.3482 205.715 37.2315C206.851 36.6912 207.786 36.2445 208.504 35.9059C209.166 35.5962 209.532 35.4305 209.547 35.4521L209.554 35.4593Z" fill="#263238"/>
<path d="M199.038 53.1962C199.052 53.2466 198.326 53.4987 197.133 53.8301C195.94 54.1615 194.265 54.5506 192.403 54.8675C190.534 55.1845 188.831 55.3718 187.594 55.4583C186.358 55.5447 185.589 55.5447 185.589 55.4943C185.589 55.4367 186.344 55.3502 187.573 55.1917C188.795 55.0404 190.491 54.8099 192.346 54.4929C194.2 54.1759 195.868 53.8301 197.075 53.5636C198.283 53.3042 199.031 53.1385 199.045 53.189L199.038 53.1962Z" fill="#263238"/>
<path d="M208.591 51.4239C208.591 51.5247 207.663 51.6112 206.52 51.6112C205.377 51.6112 204.45 51.5247 204.45 51.4239C204.45 51.323 205.377 51.2366 206.52 51.2366C207.663 51.2366 208.591 51.323 208.591 51.4239Z" fill="#263238"/>
<path d="M171.471 90.5933C168.603 88.4536 167.079 84.6426 167.676 81.1125C168.035 78.9512 169.106 76.9845 169.955 74.9673C170.81 72.9501 171.457 70.7168 170.939 68.5844C170.738 67.7703 170.372 66.985 170.372 66.1421C170.372 65.3064 170.903 64.3699 171.737 64.3267C172.37 64.2979 172.902 64.7805 173.297 65.2704C174.692 67.0066 175.82 72.0856 175.116 75.8678" fill="#FFBE9D"/>
<path d="M175.123 75.8678C175.087 75.8678 175.195 75.2842 175.238 74.2324C175.274 73.1806 175.231 71.6533 174.872 69.809C174.692 68.8869 174.426 67.8927 174.009 66.8769C173.801 66.3726 173.556 65.8539 173.204 65.4144C172.859 64.975 172.399 64.5355 171.853 64.4995C171.307 64.4563 170.832 64.939 170.652 65.5081C170.451 66.0772 170.581 66.7256 170.767 67.3596C170.961 67.9936 171.199 68.678 171.271 69.3984C171.342 70.1188 171.314 70.8536 171.192 71.5741C170.688 74.499 169.136 76.862 168.345 79.1961C167.942 80.3632 167.698 81.5159 167.705 82.6109C167.705 83.706 167.878 84.7218 168.151 85.6079C168.704 87.3945 169.617 88.6553 170.307 89.4261C171.012 90.2042 171.493 90.5428 171.465 90.5716C171.457 90.5788 171.335 90.4996 171.112 90.3339C170.882 90.1682 170.573 89.9016 170.2 89.527C169.459 88.7705 168.496 87.5098 167.892 85.6871C167.597 84.7794 167.396 83.7348 167.389 82.6037C167.367 81.4727 167.612 80.2696 168.014 79.0737C168.805 76.6819 170.336 74.3189 170.811 71.502C170.933 70.8032 170.954 70.1044 170.89 69.4272C170.825 68.7428 170.609 68.1088 170.408 67.4532C170.214 66.8049 170.063 66.0628 170.3 65.3784C170.415 65.047 170.595 64.73 170.868 64.4923C171.134 64.2474 171.501 64.1105 171.86 64.1393C172.593 64.2041 173.082 64.73 173.449 65.1983C173.822 65.6882 174.067 66.2285 174.282 66.7472C174.699 67.7918 174.944 68.8148 175.116 69.7442C175.447 71.6173 175.454 73.1662 175.368 74.2252C175.317 74.7511 175.267 75.1618 175.21 75.4355C175.152 75.7093 175.123 75.8534 175.109 75.8462L175.123 75.8678Z" fill="#EB996E"/>
<path d="M269.093 134.38C269.473 136.455 271.436 138.055 273.535 138.228C275.627 138.4 277.725 137.277 278.947 135.562C280.169 133.847 280.572 131.628 280.292 129.539C279.882 126.506 277.869 123.589 274.951 122.688C272.032 121.78 268.402 123.394 267.597 126.348L264.233 131.059L269.1 134.388L269.093 134.38Z" fill="#263238"/>
<path d="M265.118 125.138C266.483 114.209 258.598 104.224 247.528 103.165C237.091 102.17 227.819 109.958 226.259 120.34C224.886 129.446 223.707 138.638 223.75 141.974C223.88 152.038 229.752 155.957 232.139 157.139C232.685 157.405 234.18 157.715 234.784 157.802C234.82 157.802 234.849 157.845 234.841 157.881L232.613 169.436C231.6 177.008 235.819 183.758 243.359 184.861C250.928 185.963 256.844 180.149 257.994 172.57L265.125 125.13L265.118 125.138Z" fill="#FFBE9D"/>
<path d="M227.984 126.233C228.15 126.47 229.479 125.757 231.176 126.009C232.879 126.24 234.001 127.299 234.209 127.112C234.31 127.032 234.166 126.629 233.684 126.153C233.21 125.678 232.347 125.166 231.291 125.015C230.234 124.864 229.285 125.13 228.71 125.455C228.128 125.779 227.898 126.132 227.977 126.233H227.984Z" fill="#263238"/>
<path d="M243.115 129.518C243.28 129.755 244.61 129.042 246.307 129.294C248.01 129.525 249.131 130.584 249.34 130.397C249.441 130.317 249.297 129.914 248.815 129.438C248.341 128.963 247.478 128.451 246.422 128.3C245.365 128.149 244.416 128.415 243.841 128.74C243.259 129.064 243.029 129.41 243.108 129.518H243.115Z" fill="#263238"/>
<path d="M237.228 137.572C237.249 137.478 236.221 137.14 234.539 136.671C234.115 136.563 233.713 136.419 233.684 136.109C233.627 135.778 233.878 135.339 234.158 134.863C234.719 133.869 235.309 132.832 235.927 131.737C238.399 127.277 240.254 123.589 240.074 123.488C239.895 123.387 237.745 126.924 235.28 131.384C234.683 132.486 234.108 133.53 233.562 134.539C233.325 135.007 232.958 135.526 233.087 136.21C233.159 136.556 233.44 136.837 233.706 136.952C233.972 137.075 234.216 137.118 234.424 137.161C236.135 137.507 237.199 137.673 237.221 137.572H237.228Z" fill="#263238"/>
<path d="M234.849 157.816C234.849 157.816 241.332 159.314 250.267 155.568C250.267 155.568 246.414 163.889 234.252 160.928L234.856 157.816H234.849Z" fill="#EB996E"/>
<path d="M237.35 141.787C238.076 141.066 239.211 140.778 240.261 141.045C240.987 141.232 241.684 141.7 242.043 142.363C242.403 143.033 242.374 143.897 241.885 144.416C241.332 144.993 240.354 145.007 239.571 144.654C238.794 144.301 238.169 143.667 237.587 143.033C237.421 142.86 237.256 142.68 237.177 142.457C237.091 142.241 237.105 141.967 237.27 141.823" fill="#EB996E"/>
<path d="M242.065 139.481C241.792 139.424 241.519 141.275 239.751 142.356C237.982 143.444 236.042 142.947 235.991 143.206C235.948 143.321 236.379 143.631 237.206 143.775C238.018 143.919 239.247 143.833 240.326 143.17C241.404 142.507 241.979 141.491 242.151 140.742C242.331 139.978 242.195 139.488 242.065 139.481Z" fill="#263238"/>
<path d="M244.286 123.971C244.387 124.46 246.119 124.489 248.074 125.022C250.044 125.512 251.568 126.334 251.891 125.959C252.035 125.779 251.819 125.303 251.237 124.756C250.655 124.215 249.692 123.639 248.513 123.329C247.334 123.027 246.213 123.056 245.443 123.243C244.667 123.43 244.243 123.74 244.286 123.971Z" fill="#263238"/>
<path d="M229.702 120.981C229.946 121.413 231.175 121.183 232.584 121.37C234 121.507 235.15 122.011 235.481 121.644C235.632 121.463 235.495 121.053 235.028 120.606C234.568 120.167 233.756 119.742 232.778 119.626C231.808 119.518 230.916 119.742 230.37 120.066C229.817 120.39 229.594 120.765 229.694 120.974L229.702 120.981Z" fill="#263238"/>
<path d="M224.282 118.092C226.359 121.269 232.958 119.309 236.94 117.126C241.138 119.914 246.967 118.704 249.871 114.439C252.15 117.35 256.779 116.384 258.468 113.106C260.158 109.828 259.209 105.311 256.887 102.444C254.565 99.5769 251.172 98.1288 247.823 97.5093C239.88 96.0396 231.233 99.123 226.481 106.32C224.289 109.641 222.974 114.115 224.275 118.092" fill="#263238"/>
<path d="M246.235 98.6403C246.227 98.7772 244.358 98.417 241.419 98.9141C238.529 99.3968 234.468 100.91 231.434 104.296C228.473 107.732 227.129 111.802 226.64 114.713C226.144 117.667 226.525 119.525 226.395 119.54C226.36 119.54 226.237 119.093 226.122 118.25C226.022 117.407 225.993 116.161 226.18 114.648C226.568 111.651 227.862 107.451 230.946 103.863C234.115 100.319 238.364 98.8348 241.347 98.4602C242.856 98.2585 244.1 98.3017 244.941 98.4026C245.782 98.4962 246.242 98.6187 246.235 98.6547V98.6403Z" fill="#455A64"/>
<path d="M235.496 113.438C235.46 113.438 235.374 113.042 235.338 112.307C235.302 111.572 235.359 110.491 235.661 109.202C236.229 106.652 238.069 103.121 241.627 101.003C245.2 98.9142 249.175 99.0078 251.676 99.7499C252.948 100.11 253.919 100.586 254.544 100.975C255.17 101.364 255.479 101.63 255.457 101.666C255.392 101.789 254.063 100.794 251.561 100.204C249.117 99.5986 245.336 99.5986 241.958 101.58C238.594 103.583 236.768 106.896 236.107 109.331C235.409 111.81 235.632 113.452 235.496 113.452V113.438Z" fill="#455A64"/>
<path d="M254.559 109.987C253.89 112.826 253.222 115.693 253.222 118.603C253.222 121.521 253.948 124.525 255.802 126.773C258.577 130.13 263.206 131.146 267.476 131.96C269.761 126.283 270.459 119.965 269.467 113.921C268.985 110.967 268.036 107.963 265.959 105.816C262.962 102.718 257.743 102.091 254.106 104.397" fill="#263238"/>
<path d="M256.931 123.942C255.802 126.377 255.888 129.194 256.276 131.852C256.665 134.51 257.34 137.14 257.312 139.827C257.283 142.507 256.435 145.353 254.336 147.017C253.739 147.492 253.049 147.86 252.553 148.436C252.057 149.012 251.784 149.891 252.179 150.54C252.582 151.188 253.789 151.174 253.969 150.432L253.861 150.619C253.401 151.404 253.962 152.434 254.868 152.413C256.291 152.384 257.75 151.627 258.706 150.525C260.079 148.933 260.625 146.793 260.985 144.719C262.092 138.357 261.876 131.765 263.63 125.548" fill="#263238"/>
<path d="M232.555 165.712C233.54 170.027 236.465 173.867 240.369 175.942C244.272 178.024 249.08 178.305 253.206 176.713C256.93 175.272 259.927 172.462 262.831 169.717C263.866 175.942 262.141 182.577 258.217 187.512C254.292 192.447 248.218 195.602 241.928 195.984C237.17 196.272 232.045 194.81 229.054 191.092C226.963 188.499 226.115 185.055 226.151 181.72C226.186 178.384 227.035 175.113 228.027 171.929C228.882 169.206 230.219 166.151 232.972 165.409" fill="#8639D8"/>
<path d="M266.656 132.198C269.503 133.747 271.07 136.988 271.616 140.187C272.169 143.386 271.889 146.664 272.026 149.906C272.162 153.148 272.78 156.541 274.829 159.055C277 161.728 280.4 162.996 283.426 164.631C290.125 168.255 295.638 174.386 297.658 181.741C299.678 189.097 297.845 197.605 292.346 202.886C287.343 207.691 280.055 209.377 273.133 209.355C268.187 209.341 262.767 208.289 259.684 204.42C256.636 200.595 256.78 195.127 257.887 190.365C259.001 185.603 260.942 180.963 261.014 176.071C260.28 179.09 258.986 181.972 257.218 184.529C256.715 185.257 255.845 186.049 255.062 185.631C254.192 185.17 254.523 183.866 254.925 182.966C260.884 169.688 258.807 142.925 262.336 128.264" fill="#263238"/>
<path d="M261.754 130.678C261.934 130.62 268.885 129.302 267.986 136.189C267.095 143.076 260.381 140.756 260.396 140.562C260.41 140.36 261.754 130.685 261.754 130.685V130.678Z" fill="#FFBE9D"/>
<path d="M262.833 138.22C262.833 138.22 262.94 138.321 263.135 138.437C263.321 138.552 263.652 138.66 264.026 138.573C264.788 138.401 265.55 137.327 265.744 136.088C265.844 135.461 265.787 134.849 265.629 134.33C265.485 133.797 265.205 133.408 264.845 133.293C264.493 133.163 264.206 133.343 264.098 133.53C263.983 133.711 264.004 133.855 263.968 133.862C263.947 133.876 263.839 133.725 263.925 133.451C263.968 133.322 264.076 133.163 264.249 133.055C264.428 132.94 264.68 132.904 264.932 132.969C265.456 133.077 265.873 133.624 266.046 134.2C266.247 134.784 266.326 135.476 266.211 136.174C265.988 137.558 265.111 138.761 264.083 138.919C263.58 138.984 263.199 138.782 263.012 138.595C262.818 138.401 262.804 138.242 262.833 138.228V138.22Z" fill="#EB996E"/>
<path d="M225.446 180.56C225.403 180.531 225.87 179.724 226.618 178.427C227.351 177.13 228.386 175.329 229.098 173.175C229.809 171.021 229.931 168.939 229.716 167.477C229.515 166.007 229.098 165.157 229.162 165.135C229.184 165.128 229.306 165.323 229.471 165.712C229.644 166.101 229.838 166.684 229.975 167.434C230.262 168.925 230.183 171.086 229.45 173.291C228.717 175.495 227.638 177.296 226.841 178.564C226.438 179.198 226.1 179.702 225.856 180.041C225.611 180.387 225.468 180.567 225.446 180.552V180.56Z" fill="#263238"/>
<path d="M228.954 172.613C228.853 172.635 228.652 172.03 228.041 171.612C227.437 171.18 226.797 171.201 226.79 171.1C226.783 171.057 226.941 170.971 227.222 170.971C227.502 170.971 227.897 171.057 228.257 171.309C228.616 171.561 228.839 171.9 228.932 172.167C229.026 172.433 229.004 172.613 228.961 172.62L228.954 172.613Z" fill="#FAFAFA"/>
<path d="M233.389 172.599C233.288 172.657 232.749 171.662 231.621 170.935C230.507 170.185 229.385 170.077 229.4 169.962C229.378 169.868 230.614 169.811 231.829 170.618C233.051 171.417 233.49 172.577 233.389 172.592V172.599Z" fill="#FAFAFA"/>
<path d="M236.185 187.216C236.085 187.195 236.272 185.876 236.602 184.277C236.933 182.67 237.285 181.388 237.386 181.41C237.486 181.431 237.3 182.75 236.969 184.349C236.638 185.956 236.286 187.238 236.185 187.216Z" fill="#FAFAFA"/>
<path d="M247.399 189.421C247.298 189.421 247.255 188.023 247.305 186.309C247.356 184.594 247.485 183.204 247.586 183.211C247.686 183.211 247.729 184.608 247.679 186.323C247.629 188.038 247.499 189.421 247.399 189.421Z" fill="#FAFAFA"/>
<path d="M18.4444 221.436L7.36035 269.813L30.8007 269.885L41.6331 227.344L18.4444 221.436Z" fill="#B78876"/>
<path d="M133.561 162.001C131.333 159.004 128.774 156.13 127.595 152.585C127.028 150.871 126.805 149.055 126.201 147.355C125.597 145.655 124.497 143.998 122.815 143.357C121.133 142.716 119.854 143.364 118.761 144.567L110.718 168.147L115.354 186.258C119.983 185.213 125.777 183.974 130.104 182.022C134.424 180.07 137.321 176.943 137.594 172.195C137.802 168.464 135.79 164.991 133.561 161.994V162.001Z" fill="#263238"/>
<path d="M60.3585 157.837C60.3585 157.837 32.3968 170.041 28.9034 175.538C25.41 181.042 13.9307 220.284 13.9307 220.284L43.3658 228.965L42.8842 269.813H115.124L114.528 197.792L105.464 157.982C105.464 157.982 89.5133 156.951 88.0397 156.224C86.5662 155.496 60.3656 157.837 60.3656 157.837H60.3585Z" fill="#8639D8"/>
<path d="M159.727 57.9724C159.957 56.3226 158.807 54.5072 159.633 53.0591C160.093 52.2594 161.014 51.8704 161.876 51.539C162.322 51.3661 162.775 51.1932 163.249 51.2076C163.723 51.222 164.227 51.4814 164.378 51.9281C164.557 52.454 164.219 53.0231 163.824 53.4121C163.429 53.8084 162.947 54.147 162.739 54.6657C162.458 55.3573 162.717 57.5257 163.005 58.2101C163.493 59.3916 165.233 64.6507 165.384 65.9187" fill="#B78876"/>
<path d="M153.825 58.5414C153.926 56.0415 155.953 46.1861 156.054 43.6863C157.743 44.205 158.72 46.006 159.037 47.7495C159.353 49.4929 159.188 51.2867 159.489 53.0302C159.892 55.3715 161.107 57.4824 162.329 59.514C163.551 61.5456 164.83 63.606 165.376 65.9185C165.923 68.2311 168.014 74.2178 166.39 75.9468" fill="#B78876"/>
<path d="M153.358 75.3994L143.367 123.005C143.014 125.152 105.464 157.974 105.464 157.974L112.882 187.663L161.797 139.733C165.326 135.951 167.245 130.944 167.145 125.771L166.318 81.1052L153.358 75.3994Z" fill="#B78876"/>
<path d="M151.654 58.8441L153.358 75.3994L166.318 81.1051C166.318 81.1051 166.476 79.9308 167.037 74.1891C167.648 67.8566 160.862 65.1406 157.836 60.4722C156.542 58.4694 156.88 54.7953 155.881 50.2422C155.766 49.7163 155.047 46.5392 154.652 44.8246C154.436 43.8809 153.904 43.0236 153.099 42.4833C152.517 42.087 151.848 41.8925 151.367 42.4833C150.871 43.0812 151.654 58.8369 151.654 58.8369V58.8441Z" fill="#B78876"/>
<path d="M159.727 78.1803C161.201 76.9339 161.517 74.7006 160.971 72.8492C160.424 70.9977 159.181 69.4416 157.916 67.9791C156.651 66.5166 155.321 65.0686 154.544 63.2963C153.998 62.05 153.747 60.6884 153.143 59.4709C152.539 58.2534 151.439 57.1367 150.088 57.0791C151.173 63.9303 151.145 67.871 153.366 75.3995" fill="#B78876"/>
<path d="M151.403 64.8813C151.403 64.8813 151.353 64.694 151.266 64.3338C151.173 63.8943 151.058 63.3756 150.921 62.7633C150.619 61.3296 150.224 59.4782 149.778 57.3745L149.735 57.1728L149.944 57.1584C150.799 57.0935 151.683 57.4682 152.359 58.0661C153.488 59.0315 154.005 60.3859 154.386 61.5314C154.76 62.6984 155.083 63.7359 155.522 64.5355C155.917 65.3568 156.471 65.8611 156.787 66.2861C157.103 66.704 157.233 66.9561 157.218 66.9705C157.197 66.985 157.017 66.7616 156.679 66.3798C156.348 66.0052 155.737 65.5081 155.292 64.6652C154.81 63.8583 154.451 62.7921 154.063 61.6394C153.667 60.5011 153.164 59.2332 152.122 58.3399C151.496 57.7924 150.713 57.461 149.973 57.5114L150.138 57.2953C150.993 61.6322 151.561 64.8813 151.403 64.8741V64.8813Z" fill="#7C5142"/>
<path d="M157.211 60.6668C157.11 60.6812 156.571 57.6554 156.018 53.9092C155.464 50.163 155.09 47.1085 155.198 47.094C155.299 47.0796 155.838 50.1054 156.391 53.8516C156.945 57.5978 157.319 60.6524 157.211 60.6668Z" fill="#7C5142"/>
<path d="M161.337 61.2286C161.337 61.2286 161.387 61.3079 161.43 61.4808L161.322 61.5024C161.078 60.9045 160.517 59.0386 160.021 56.7908C159.712 55.4004 159.482 54.1325 159.353 53.2103C159.216 52.2882 159.173 51.7119 159.223 51.7047C159.331 51.6903 159.77 53.9452 160.388 56.7116C160.884 58.9521 161.337 60.8396 161.437 61.4736L161.33 61.4952C161.322 61.3151 161.33 61.2287 161.344 61.2214L161.337 61.2286Z" fill="#7C5142"/>
<path d="M163.882 70.3565C163.831 70.3853 163.565 69.9819 163.048 69.4272C162.53 68.8724 161.718 68.188 160.676 67.6837C159.633 67.1794 158.591 66.9705 157.836 66.9057C157.082 66.8408 156.6 66.8913 156.593 66.8264C156.586 66.7832 157.06 66.6391 157.851 66.6391C158.641 66.6319 159.741 66.812 160.841 67.3451C161.934 67.8783 162.767 68.6275 163.249 69.2543C163.738 69.881 163.918 70.3349 163.882 70.3565Z" fill="#7C5142"/>
<path d="M154.53 76.7106C154.487 76.725 154.142 75.9902 153.682 74.7511C153.222 73.5119 152.661 71.7757 152.194 69.8162C151.727 67.8566 151.439 66.0484 151.288 64.7372C151.137 63.426 151.116 62.6119 151.166 62.6047C151.223 62.6047 151.338 63.4044 151.554 64.7012C151.77 65.9979 152.093 67.7774 152.56 69.7297C153.028 71.6749 153.538 73.4183 153.933 74.6646C154.329 75.9181 154.587 76.689 154.537 76.7106H154.53Z" fill="#7C5142"/>
<path d="M96.6943 158.824C97.8947 156.814 100.849 156.123 102.819 157.391C108.095 153.09 113.493 148.875 118.769 144.574C117.044 153.198 115.915 165.279 119.754 173.182C119.754 173.182 124.62 182.253 132.369 180.862L125.461 187.67L114.535 197.792" fill="#8639D8"/>
<path d="M94.9763 162.873C94.8828 162.873 94.9763 161.274 95.9898 159.624C96.9889 157.967 98.3619 157.138 98.405 157.225C98.4769 157.311 97.2621 158.241 96.3133 159.818C95.3501 161.389 95.0913 162.902 94.9763 162.873Z" fill="#263238"/>
<path d="M100.677 168.168C100.677 168.168 100.332 167.614 100.073 166.591C99.8215 165.575 99.6849 164.105 99.9652 162.52C100.246 160.935 100.878 159.595 101.468 158.731C102.057 157.859 102.546 157.434 102.575 157.456C102.625 157.499 102.208 157.989 101.698 158.868C101.18 159.747 100.612 161.051 100.339 162.578C100.073 164.105 100.159 165.532 100.339 166.533C100.519 167.534 100.742 168.139 100.677 168.161V168.168Z" fill="#263238"/>
<path d="M127.092 186.705C127.092 186.705 126.539 187.094 125.374 187.396C124.224 187.706 122.42 187.85 120.335 187.245C118.258 186.662 116.015 185.163 114.283 182.894C112.522 180.639 111.329 177.656 110.675 174.458C109.438 168.024 109.489 162.059 109.812 157.809C109.977 155.676 110.215 153.962 110.416 152.787C110.509 152.197 110.603 151.743 110.66 151.433C110.725 151.123 110.761 150.965 110.775 150.965C110.79 150.965 110.775 151.13 110.732 151.44C110.689 151.793 110.632 152.24 110.552 152.802C110.402 153.983 110.207 155.698 110.071 157.823C109.812 162.059 109.812 168.003 111.034 174.378C111.681 177.541 112.845 180.466 114.549 182.678C116.231 184.904 118.387 186.381 120.407 186.986C122.427 187.612 124.188 187.512 125.331 187.252C126.488 187 127.071 186.662 127.085 186.705H127.092Z" fill="#FAFAFA"/>
<path d="M43.5238 241.089C43.4232 241.089 43.3369 230.845 43.3369 218.216C43.3369 205.587 43.4232 195.343 43.5238 195.343C43.6244 195.343 43.7107 205.58 43.7107 218.216C43.7107 230.852 43.6244 241.089 43.5238 241.089Z" fill="#263238"/>
<path d="M42.942 187.439C42.8629 187.439 42.8845 186.416 42.5323 184.824C42.367 184.025 42.0579 183.102 41.6338 182.116C41.1881 181.143 40.5987 180.106 39.8583 179.119C39.0964 178.139 38.2626 177.303 37.436 176.611C36.6021 175.941 35.7899 175.401 35.0639 175.034C33.6263 174.27 32.6271 174.025 32.6559 173.953C32.6559 173.932 32.9075 173.982 33.3603 174.097C33.5831 174.155 33.8563 174.234 34.1582 174.357C34.4601 174.479 34.8195 174.594 35.1861 174.796C35.9408 175.142 36.7818 175.675 37.6516 176.345C38.507 177.037 39.3767 177.887 40.153 178.895C40.915 179.911 41.5044 180.977 41.9501 181.986C42.367 183.002 42.6545 183.96 42.7911 184.781C42.8845 185.185 42.9061 185.566 42.942 185.891C42.9851 186.215 42.9851 186.503 42.9851 186.733C42.9851 187.195 42.9708 187.454 42.942 187.454V187.439Z" fill="#263238"/>
<path d="M92.1805 157.52C92.1805 157.52 92.2308 157.729 92.3027 158.126C92.3817 158.522 92.4392 159.12 92.4896 159.891C92.5686 161.425 92.432 163.694 91.591 166.338C90.7285 168.953 89.1112 171.958 86.3797 174.422C83.6842 176.907 79.8026 178.614 75.5832 178.939C71.3638 179.241 67.2738 178.139 64.2332 176.078C61.1639 174.047 59.1225 171.316 57.879 168.86C56.657 166.374 56.1826 164.148 56.0316 162.621C55.9669 161.85 55.931 161.252 55.9526 160.849C55.9526 160.445 55.9669 160.229 55.9813 160.229C55.9957 160.229 56.0101 160.445 56.0316 160.849C56.0316 161.252 56.0891 161.843 56.1826 162.607C56.3767 164.119 56.887 166.31 58.1162 168.745C59.3669 171.151 61.4011 173.816 64.4201 175.79C67.4032 177.793 71.4141 178.859 75.5544 178.564C79.6876 178.24 83.4901 176.583 86.1425 174.162C88.8308 171.756 90.4481 168.817 91.3323 166.252C92.1877 163.658 92.3674 161.418 92.3314 159.891C92.3098 159.127 92.2739 158.529 92.2164 158.133C92.1733 157.729 92.1589 157.52 92.1733 157.513L92.1805 157.52Z" fill="#263238"/>
<path d="M42.899 220.024C42.8631 220.125 36.9329 218.245 29.637 215.831C22.3483 213.418 16.4613 211.379 16.4972 211.278C16.5332 211.177 22.4633 213.058 29.7592 215.471C37.0479 217.885 42.935 219.923 42.899 220.017V220.024Z" fill="#FAFAFA"/>
<path d="M113.83 210.025C113.83 210.126 97.9805 210.277 78.429 210.363C58.8702 210.443 43.0205 210.428 43.0205 210.327C43.0205 210.227 58.8702 210.075 78.429 209.989C97.9805 209.91 113.837 209.924 113.837 210.025H113.83Z" fill="#FAFAFA"/>
<path d="M114.19 216.3C114.19 216.4 98.2537 216.487 78.6087 216.487C58.9637 216.487 43.0205 216.4 43.0205 216.3C43.0205 216.199 58.9493 216.112 78.6087 216.112C98.2681 216.112 114.19 216.199 114.19 216.3Z" fill="#FAFAFA"/>
<path d="M104.428 223.922C104.428 223.922 104.371 224.123 104.227 224.505C104.069 224.909 103.853 225.456 103.58 226.148C103.436 226.508 103.278 226.904 103.106 227.329C102.919 227.754 102.696 228.215 102.466 228.705C101.992 229.685 101.503 230.831 100.82 232.019C100.489 232.624 100.152 233.251 99.7921 233.914C99.4327 234.57 99.0014 235.218 98.5845 235.91C97.7651 237.3 96.7588 238.698 95.7237 240.189C93.5673 243.107 91.0011 246.176 88.0324 249.122C85.0278 252.047 81.9226 254.554 78.9683 256.658C77.4588 257.666 76.0499 258.653 74.641 259.439C73.9438 259.842 73.2897 260.26 72.6284 260.613C71.9671 260.959 71.3273 261.29 70.7235 261.607C69.5231 262.27 68.373 262.738 67.3883 263.192C66.8923 263.415 66.4323 263.631 66.001 263.804C65.5697 263.97 65.1743 264.121 64.8078 264.258C64.1177 264.518 63.5642 264.719 63.1545 264.871C62.7735 265.007 62.5723 265.072 62.5723 265.058C62.5723 265.043 62.7592 264.957 63.1329 264.798C63.5355 264.633 64.0746 264.402 64.7574 264.121C65.1168 263.977 65.505 263.812 65.9363 263.639C66.3604 263.451 66.8132 263.228 67.3092 262.997C68.2868 262.529 69.4225 262.039 70.6085 261.369C71.2123 261.045 71.8377 260.706 72.499 260.361C73.1531 260.008 73.8 259.583 74.4901 259.172C75.8846 258.372 77.2863 257.385 78.7814 256.37C81.7069 254.259 84.7978 251.759 87.7809 248.848C90.7352 245.916 93.2941 242.869 95.4577 239.98C96.4928 238.503 97.5135 237.12 98.3329 235.737C98.757 235.052 99.1883 234.411 99.5549 233.763C99.9215 233.114 100.267 232.488 100.604 231.89C101.302 230.708 101.805 229.584 102.294 228.612C102.531 228.122 102.768 227.675 102.962 227.25C103.142 226.825 103.314 226.436 103.465 226.083C103.76 225.406 103.997 224.865 104.177 224.469C104.342 224.102 104.436 223.907 104.45 223.914L104.428 223.922Z" fill="#263238"/>
<path d="M51.2436 101.983C48.2103 104.368 48.009 108.827 48.16 112.689C48.3109 116.55 48.354 120.945 45.5651 123.61C43.2649 125.808 39.2396 126.622 38.5782 129.741C38.2692 131.196 38.9592 132.81 40.2243 133.588C41.4894 134.366 43.2361 134.251 44.3862 133.314C43.4086 135.749 43.8543 138.883 45.9245 140.49C48.0018 142.096 51.639 141.347 52.4225 138.84C51.9337 140.497 53.0766 142.449 54.7586 142.846C56.4406 143.235 58.3167 141.988 58.6114 140.281" fill="#263238"/>
<path d="M95.2635 129.943C95.8961 131.895 98.2825 133.062 100.209 132.363C102.135 131.665 103.221 129.237 102.459 127.328C101.862 125.836 100.331 124.705 100.259 123.091C100.173 121.146 102.207 119.857 103.997 119.1C105.787 118.337 107.886 117.343 108.173 115.412C108.446 113.553 106.851 112.011 105.507 110.693C104.17 109.375 102.883 107.372 103.825 105.744C104.306 104.908 105.248 104.461 105.88 103.734C107.275 102.127 106.714 99.4256 105.104 98.0352C103.494 96.6448 101.186 96.3494 99.0804 96.6231C96.9743 96.8969 94.9616 97.675 92.8986 98.1793C86.0915 99.8578 78.5944 98.5035 72.8008 94.5483" fill="#263238"/>
<path d="M53.2992 116.838L60.7029 159.804C62.004 167.361 69.192 172.412 76.7251 171.064C83.7623 169.804 88.6717 163.356 88.0392 156.224C87.7013 152.413 87.4066 149.257 87.4066 149.257C87.4066 149.257 98.1456 146.491 97.2184 135.555C96.7727 130.267 94.9613 119.453 93.2146 109.692C91.3385 99.2022 81.7281 91.9332 71.1472 92.9634L70.0977 93.0642C58.8196 94.8365 51.2219 105.585 53.3064 116.838H53.2992Z" fill="#B78876"/>
<path d="M90.9227 116.773C91.0305 117.595 90.4267 118.365 89.5713 118.495C88.7159 118.625 87.9396 118.063 87.8318 117.242C87.724 116.42 88.3278 115.65 89.176 115.52C90.0313 115.39 90.8077 115.952 90.9227 116.773Z" fill="#263238"/>
<path d="M91.3969 115.282C91.2244 115.505 89.9593 114.742 88.2844 114.915C86.6096 115.059 85.4667 116.046 85.2654 115.851C85.1648 115.772 85.3301 115.383 85.8261 114.936C86.3149 114.497 87.1775 114.028 88.2197 113.935C89.262 113.841 90.1821 114.137 90.7212 114.482C91.2747 114.828 91.4831 115.181 91.3969 115.282Z" fill="#263238"/>
<path d="M74.533 118.69C74.6408 119.511 74.037 120.282 73.1817 120.411C72.3263 120.541 71.55 119.979 71.4422 119.158C71.3343 118.337 71.9381 117.566 72.7863 117.436C73.6417 117.306 74.418 117.868 74.533 118.69Z" fill="#263238"/>
<path d="M74.9574 117.198C74.7849 117.422 73.5198 116.658 71.845 116.831C70.1701 116.975 69.0272 117.962 68.8188 117.767C68.7182 117.688 68.8763 117.299 69.3795 116.852C69.8682 116.413 70.7308 115.945 71.7731 115.851C72.8154 115.757 73.7354 116.053 74.2745 116.399C74.828 116.744 75.0365 117.097 74.9502 117.198H74.9574Z" fill="#263238"/>
<path d="M82.2466 129.057C82.2322 128.963 83.2529 128.682 84.9205 128.3C85.3446 128.214 85.74 128.091 85.7831 127.789C85.855 127.472 85.6321 127.025 85.3734 126.542C84.8702 125.541 84.3455 124.496 83.792 123.401C81.5853 118.927 79.9392 115.224 80.1189 115.138C80.2986 115.052 82.2394 118.61 84.4461 123.084C84.978 124.187 85.4884 125.246 85.9772 126.247C86.1856 126.715 86.5163 127.241 86.3653 127.911C86.2791 128.243 85.9915 128.509 85.7256 128.61C85.4596 128.718 85.2224 128.747 85.0068 128.783C83.3176 129.042 82.2681 129.15 82.2466 129.057Z" fill="#263238"/>
<path d="M74.7487 110.578C74.6265 111.053 72.9373 110.995 70.9893 111.428C69.0414 111.817 67.5103 112.552 67.2084 112.163C67.0718 111.975 67.309 111.521 67.9057 111.017C68.4951 110.513 69.4727 109.994 70.6371 109.749C71.8016 109.504 72.9014 109.583 73.6489 109.807C74.3965 110.03 74.799 110.354 74.7487 110.578Z" fill="#263238"/>
<path d="M90.3032 110.477C90.0445 110.888 88.8512 110.607 87.4639 110.722C86.0695 110.787 84.9265 111.226 84.6175 110.859C84.4809 110.679 84.6246 110.275 85.1062 109.864C85.5735 109.454 86.3929 109.079 87.3489 109.014C88.3049 108.95 89.1675 109.216 89.6851 109.562C90.217 109.908 90.411 110.282 90.3032 110.484V110.477Z" fill="#263238"/>
<path d="M63.9738 103.698C63.9738 103.698 63.9379 103.734 63.9163 103.748C62.3134 105.29 61.3573 107.393 61.2711 109.62C61.2711 109.699 61.2711 109.771 61.2639 109.843C61.1417 112.998 61.5227 116.161 61.3717 119.324C61.2208 122.479 60.4516 125.75 58.3599 128.12C57.5045 129.093 55.8872 129.863 55.0103 128.905C54.6724 128.538 54.5718 128.012 54.4855 127.515C53.1701 120.044 50.4746 113.567 49.7198 105.7C49.5186 103.561 50.3236 101.45 51.941 100.031C53.472 98.6907 55.3553 97.2715 57.2673 97.9559C59.1865 98.6475 61.8821 101.839 63.4347 103.157" fill="#263238"/>
<path d="M57.4546 121.42C57.2606 121.355 49.749 119.929 50.7122 127.378C51.6754 134.827 58.9354 132.32 58.921 132.104C58.9066 131.888 57.4546 121.42 57.4546 121.42Z" fill="#B78876"/>
<path d="M56.2898 129.575C56.2898 129.575 56.1748 129.683 55.9664 129.813C55.7651 129.935 55.4057 130.051 55.0032 129.957C54.1837 129.77 53.3571 128.61 53.1486 127.27C53.0408 126.593 53.0983 125.93 53.2708 125.368C53.429 124.792 53.7309 124.367 54.1118 124.244C54.4928 124.1 54.8019 124.302 54.9241 124.503C55.0535 124.698 55.0247 124.857 55.0607 124.864C55.0822 124.878 55.2044 124.72 55.1038 124.417C55.0535 124.273 54.9457 124.107 54.7516 123.985C54.5575 123.862 54.2844 123.826 54.0112 123.891C53.4433 124.006 52.9977 124.604 52.8108 125.224C52.5952 125.851 52.5089 126.6 52.6311 127.356C52.8755 128.848 53.8243 130.159 54.9385 130.325C55.4776 130.397 55.8945 130.18 56.0958 129.972C56.3042 129.755 56.3186 129.59 56.2898 129.575Z" fill="#7C5142"/>
<path d="M57.1311 99.1446C55.0035 96.3349 59.6182 91.5513 63.1835 90.0312C66.7488 88.5111 71.7661 89.8367 75.547 90.694C77.9334 91.2343 80.3342 92.0844 82.7566 91.7458C84.3811 91.5225 85.8762 90.7733 87.3642 90.0745C88.8521 89.3757 90.4047 88.7129 92.0436 88.6624C93.6825 88.612 95.4436 89.318 96.2055 90.7733C96.9674 92.2285 96.2846 94.3898 94.696 94.7716C96.6512 93.4316 99.778 94.6347 100.339 96.9401C100.899 99.2454 98.6782 101.753 96.3349 101.479C97.3197 100.571 99.0736 101.738 99.0664 103.078C99.0664 104.418 97.9594 105.499 96.7949 106.154C93.8191 107.826 90.1532 107.746 86.8323 106.976C83.5114 106.205 80.363 104.807 77.0565 103.95C73.7571 103.1 68.208 101.529 65.1171 102.97C62.8385 104.036 61.4799 107.04 60.0854 106.543C58.7413 106.061 57.7924 104.793 57.3971 103.417C57.0017 102.041 57.0664 100.578 57.1311 99.1518" fill="#263238"/>
<path d="M57.5479 122.695C57.7635 126.643 57.9791 130.613 58.8992 134.46C59.8193 138.307 61.4869 142.053 64.2543 144.87C67.8771 148.566 72.5637 152.103 77.6673 152.946C83.238 153.868 90.0523 152.701 94.588 149.329C96.7372 147.73 98.3042 144.279 97.6358 141.678C99.4687 140.835 100.763 138.934 100.87 136.916C100.978 134.899 99.7562 132.378 98.1605 132.111C99.3609 131.917 99.6987 130.015 99.2459 128.934C98.7787 127.81 97.2188 127.536 96.0256 127.767C94.8324 127.998 93.7901 128.704 92.8126 129.424C91.835 130.144 90.8502 130.908 89.7001 131.283C85.8473 132.536 81.9442 129.136 77.8973 129.287C74.2386 129.431 70.9824 132.471 67.3524 131.96C65.3253 131.672 63.5787 130.267 62.4645 128.552C61.3432 126.83 61.8319 120.469 61.3935 118.466" fill="#263238"/>
<g opacity="0.6">
<path d="M86.911 139.841C86.8822 139.892 86.566 139.726 86.0197 139.575C85.4806 139.423 84.6971 139.315 83.8561 139.467C83.015 139.618 82.3178 140 81.865 140.331C81.4049 140.663 81.1677 140.929 81.1246 140.893C81.0886 140.872 81.2683 140.54 81.714 140.137C82.1525 139.733 82.8857 139.287 83.7985 139.121C84.7114 138.955 85.5524 139.121 86.1059 139.337C86.6594 139.56 86.9397 139.805 86.9182 139.841H86.911Z" fill="#455A64"/>
</g>
<path d="M79.0475 131.571C79.3206 131.528 79.5003 133.35 81.1823 134.489C82.8643 135.634 84.7835 135.238 84.8195 135.497C84.8554 135.612 84.4241 135.893 83.6047 135.994C82.8068 136.102 81.6064 135.958 80.5785 135.259C79.5506 134.561 79.0403 133.538 78.9037 132.796C78.7599 132.039 78.9181 131.571 79.0475 131.571Z" fill="white"/>
<path d="M73.6416 151.735C73.6416 151.735 73.8069 151.786 74.1088 151.908C74.4179 152.024 74.8708 152.182 75.4674 152.348C76.6606 152.686 78.4289 153.047 80.6428 153.162C81.7498 153.227 82.9645 153.22 84.2584 153.09C85.5522 152.982 86.9252 152.722 88.3197 152.297C89.7213 151.894 91.123 151.253 92.46 150.403C93.797 149.56 95.0764 148.494 96.0468 147.132C97.1897 145.525 97.7792 143.508 97.4701 141.736L97.4413 141.585L97.5779 141.527C98.498 141.131 99.2455 140.432 99.8206 139.668C100.108 139.287 100.36 138.876 100.547 138.458C100.733 138.047 100.827 137.594 100.87 137.154C101.035 135.375 100.245 133.725 99.1377 132.796L99.0371 132.709L99.1233 132.601C99.8565 131.693 99.8996 130.49 99.5618 129.64C99.2312 128.761 98.5124 128.25 97.9086 128.019C97.2904 127.774 96.7585 127.774 96.4134 127.81C96.0612 127.853 95.8887 127.911 95.8815 127.897C95.8815 127.897 96.0468 127.803 96.4062 127.731C96.7585 127.666 97.3119 127.645 97.9661 127.875C98.6058 128.098 99.3893 128.617 99.7703 129.561C100.151 130.469 100.13 131.758 99.339 132.781L99.3174 132.587C100.503 133.559 101.359 135.288 101.201 137.19C101.158 137.658 101.057 138.141 100.863 138.595C100.669 139.049 100.403 139.474 100.108 139.877C99.5043 140.677 98.728 141.419 97.7217 141.858L97.8295 141.65C98.1745 143.595 97.5491 145.662 96.3631 147.348C95.3568 148.76 94.0342 149.862 92.6684 150.712C91.3027 151.577 89.8579 152.218 88.4347 152.622C87.0114 153.047 85.6169 153.299 84.3015 153.392C82.9861 153.515 81.7569 153.501 80.6428 153.421C78.4073 153.27 76.6318 152.867 75.4458 152.485C74.8492 152.297 74.3963 152.11 74.1016 151.973C73.8069 151.822 73.656 151.743 73.6632 151.728L73.6416 151.735Z" fill="#455A64"/>
<path d="M41.0513 132.724C41.0513 132.724 40.9003 132.695 40.6703 132.536C40.4403 132.385 40.1312 132.082 39.9156 131.585C39.7143 131.095 39.5993 130.418 39.7646 129.669C39.9228 128.912 40.4547 128.156 41.195 127.565C41.9426 126.967 42.8914 126.521 43.9265 126.146C44.9544 125.764 46.0757 125.426 47.1036 124.792C48.1315 124.172 48.9654 123.164 49.4973 121.968C50.0436 120.772 50.3023 119.403 50.3455 118.005C50.403 115.188 49.756 112.516 49.6842 110.03C49.5692 107.552 50.0436 105.225 51.1721 103.669C52.2862 102.106 53.767 101.385 54.7949 101.198C55.3124 101.09 55.7293 101.119 56.0025 101.133C56.2756 101.176 56.4194 101.205 56.4122 101.219C56.4122 101.27 55.83 101.104 54.8236 101.342C53.8389 101.565 52.43 102.3 51.3877 103.82C50.3383 105.333 49.8926 107.581 50.022 110.016C50.1083 112.458 50.7696 115.124 50.7121 118.02C50.6689 119.461 50.403 120.88 49.8279 122.126C49.2673 123.38 48.3687 124.439 47.2762 125.094C46.1908 125.75 45.0479 126.074 44.0271 126.449C42.9993 126.809 42.0792 127.227 41.3532 127.789C40.6344 128.343 40.1312 129.035 39.9659 129.734C39.7862 130.433 39.8724 131.074 40.045 131.549C40.4259 132.522 41.0872 132.702 41.0441 132.745L41.0513 132.724Z" fill="#455A64"/>
<path d="M94.9399 94.6203C94.9399 94.6203 95.0477 94.5626 95.2706 94.469C95.3784 94.4186 95.5222 94.3681 95.6875 94.3249C95.86 94.2745 96.0541 94.224 96.2841 94.2024C97.1826 94.0655 98.6777 94.2817 99.9428 95.5208C100.791 96.587 101.294 98.2152 101.057 99.9874C100.856 101.76 99.7991 103.597 98.1099 104.865C96.435 106.161 94.2067 106.911 91.8634 107.04C89.5057 107.184 87.0546 106.824 84.6035 106.241C80.6069 105.275 77.02 103.546 74.0729 101.565C72.585 100.6 71.1833 99.6848 69.7529 99.0437C68.3369 98.3881 66.9064 98.0639 65.5838 97.9774C62.9242 97.8045 60.8037 98.4961 59.4668 99.1157C58.1154 99.7569 57.4757 100.297 57.4541 100.261C57.4541 100.261 58.0579 99.6704 59.4021 98.986C60.7319 98.316 62.8811 97.5668 65.5982 97.7109C66.9496 97.7829 68.4231 98.1071 69.8751 98.7555C71.3343 99.3967 72.7647 100.312 74.2526 101.27C77.1926 103.222 80.7291 104.915 84.6897 105.873C87.1121 106.457 89.5417 106.81 91.8347 106.673C94.1277 106.55 96.2841 105.837 97.9086 104.598C99.5475 103.381 100.568 101.637 100.777 99.9442C101.028 98.2512 100.561 96.6807 99.7703 95.6505C98.5987 94.4618 97.1539 94.2024 96.2769 94.3105C95.3784 94.4114 94.9327 94.6563 94.9184 94.6131L94.9399 94.6203Z" fill="#455A64"/>
<path d="M91.13 88.2734C91.13 88.2734 91.1803 88.893 90.7922 89.9232C90.3968 90.9318 89.4336 92.3078 87.7229 93.2876C86.8819 93.7775 85.8684 94.1809 84.7255 94.3682C83.5897 94.5555 82.3462 94.5483 81.0739 94.3826C78.5078 94.0656 75.8554 93.0498 73.0664 92.1781C70.2846 91.3064 67.4669 90.7877 65.0014 91.3208C62.5359 91.8323 60.5951 93.2227 59.33 94.6348C58.0505 96.054 57.3676 97.4876 57.0298 98.4962C56.6991 99.5192 56.6345 100.117 56.5913 100.11C56.577 100.11 56.5913 99.9587 56.6345 99.6777C56.6632 99.3896 56.7567 98.9789 56.8932 98.453C57.1951 97.4156 57.8421 95.9315 59.1287 94.4547C60.401 92.9922 62.3705 91.5297 64.9223 90.9822C67.4813 90.4131 70.3709 90.939 73.167 91.8179C75.9776 92.6968 78.6012 93.7054 81.117 94.0368C82.3678 94.2097 83.5754 94.2241 84.6751 94.0584C85.7749 93.8927 86.7669 93.5181 87.5935 93.057C89.2683 92.1349 90.2387 90.8381 90.6628 89.8728C91.0797 88.8858 91.0869 88.2734 91.1372 88.2806L91.13 88.2734Z" fill="#455A64"/>
<path d="M154.573 230.182C156.607 230.449 158.419 231.746 159.612 233.41C160.812 235.074 161.452 237.091 161.79 239.115C162.444 243.035 161.387 247.494 159.935 251.19C155.946 249.317 153.818 244.656 152.891 242.221C151.417 238.381 151.094 230.535 154.573 230.175" fill="#8639D8"/>
<path d="M165.822 256.715C164.557 254.799 164.585 252.184 165.671 250.159C166.756 248.135 168.776 246.701 170.983 246.082C172.004 245.794 173.182 245.693 174.045 246.298C174.857 246.867 175.188 247.955 175.058 248.942C174.929 249.929 174.412 250.815 173.801 251.6C171.723 254.287 169.215 256.514 165.822 256.715Z" fill="#8639D8"/>
<path d="M164.809 269.135C164.809 269.135 164.73 268.84 164.672 268.307C164.615 267.774 164.55 267.003 164.5 266.045C164.406 264.136 164.327 261.449 164.953 258.553C165.585 255.649 166.987 253.257 168.353 251.874C169.028 251.175 169.654 250.7 170.121 250.419C170.581 250.138 170.854 250.023 170.868 250.044C170.919 250.116 169.841 250.671 168.583 252.09C167.317 253.481 166.002 255.822 165.384 258.646C164.766 261.47 164.794 264.129 164.809 266.03C164.838 267.94 164.874 269.128 164.809 269.128V269.135Z" fill="#263238"/>
<path d="M155.5 236.133C155.5 236.133 155.709 236.58 156.003 237.415C156.298 238.251 156.708 239.461 157.204 240.974C158.189 243.986 159.475 248.171 160.783 252.825C162.092 257.479 163.17 261.722 163.903 264.806C164.27 266.348 164.55 267.594 164.73 268.466C164.909 269.33 164.996 269.813 164.967 269.82C164.938 269.827 164.794 269.359 164.557 268.502C164.306 267.572 163.982 266.348 163.594 264.878C162.789 261.816 161.66 257.594 160.352 252.941C159.044 248.294 157.808 244.101 156.902 241.068C156.471 239.605 156.111 238.395 155.838 237.473C155.594 236.623 155.471 236.147 155.5 236.14V236.133Z" fill="#263238"/>
<path d="M160.503 260.44C158.555 256.009 154.35 252.652 149.606 251.737C148.398 251.507 146.91 251.535 146.235 252.573C145.559 253.61 146.141 254.993 146.86 255.995C149.872 260.152 155.565 262.147 160.503 260.779" fill="#8639D8"/>
<path d="M150.936 255.224C150.936 255.224 151.223 255.224 151.734 255.303C151.992 255.339 152.302 255.397 152.647 255.498C152.999 255.599 153.409 255.685 153.84 255.858C154.717 256.146 155.716 256.615 156.773 257.227C157.815 257.861 158.9 258.668 159.921 259.64C160.927 260.634 161.761 261.694 162.437 262.717C163.084 263.754 163.58 264.741 163.896 265.613C164.083 266.038 164.183 266.441 164.291 266.794C164.406 267.14 164.471 267.45 164.514 267.709C164.615 268.213 164.651 268.494 164.622 268.502C164.536 268.523 164.32 267.399 163.608 265.735C163.256 264.899 162.746 263.948 162.092 262.947C161.416 261.96 160.597 260.93 159.612 259.965C158.613 259.014 157.563 258.221 156.557 257.58C155.536 256.96 154.573 256.478 153.725 256.153C152.043 255.491 150.914 255.311 150.936 255.224Z" fill="#263238"/>
</g>
<defs>
<clipPath id="clip0_1073_37486">
<rect width="327" height="270" fill="white"/>
</clipPath>
</defs>
</svg>
