<svg width="356" height="228" viewBox="0 0 356 228" fill="none" xmlns="http://www.w3.org/2000/svg">
<g clip-path="url(#clip0_1073_37482)">
<path d="M220.24 19.0604L226.529 12.084L239.862 22.8317L259.687 0L266.167 6.33082L239.568 35.6859L220.24 19.0604Z" fill="#EBEBEB"/>
<path d="M42.0549 74.4296L36.9293 75.8L21.5753 63.1723L18.8431 52.9116C18.8431 52.9116 10.7935 54.5538 15.3094 67.7364C19.8253 80.919 17.9061 77.7705 17.9061 77.7705C17.9061 77.7705 1.10692 82.3459 0.102131 84.192C-0.631703 85.5283 3.37616 102.414 5.62282 111.554C6.7518 116.152 10.6919 119.663 15.2191 119.595C15.8626 119.595 16.4949 119.515 17.0932 119.357C21.293 118.236 41.8065 109.062 41.8065 109.062L50.6577 106.684L42.0549 74.4409V74.4296Z" fill="#F5F5F5"/>
<path d="M55.9748 67.6797L62.1954 103.683L53.4233 106.038L44.2334 71.5869L55.9748 67.6797Z" fill="#F5F5F5"/>
<path d="M329.718 183.899L332.902 184.081L340.398 174.737L340.748 168.35C340.748 168.35 345.693 168.316 344.655 176.651C343.616 184.987 344.361 182.891 344.361 182.891C344.361 182.891 354.827 183.514 355.64 184.477C356.238 185.179 355.944 195.621 355.741 201.284C355.64 204.138 353.754 206.686 351.079 207.207C350.695 207.286 350.311 207.32 349.938 207.297C347.33 207.15 334.11 204.285 334.11 204.285L328.601 203.979L329.707 183.911L329.718 183.899Z" fill="#F5F5F5"/>
<path d="M320.675 181.634L321.431 203.628L326.895 203.934L328.081 182.495L320.675 181.634Z" fill="#F5F5F5"/>
<path d="M338.342 227.706C338.342 227.864 272.625 228 191.587 228C110.549 228 44.8086 227.864 44.8086 227.706C44.8086 227.547 110.504 227.411 191.587 227.411C272.67 227.411 338.342 227.547 338.342 227.706Z" fill="#263238"/>
<path d="M152.028 67.521L158.452 60.0576C157.91 54.4177 158.869 48.5625 161.534 43.1037C169.211 27.3956 188.133 20.9176 203.791 28.6187C219.45 36.3312 225.908 55.301 218.231 71.0092C210.554 86.7173 191.632 93.1953 175.973 85.4941C169.437 82.2778 164.514 77.0908 161.534 70.9978V71.0205L152.017 67.5323L152.028 67.521Z" fill="white"/>
<path d="M152.028 67.521C152.028 67.521 152.22 67.6003 152.615 67.7589C153.033 67.9174 153.631 68.1439 154.41 68.4497C156.036 69.0613 158.418 69.956 161.5 71.1225C161.557 71.1451 161.625 71.1225 161.636 71.0545C161.636 71.0319 161.636 71.0092 161.636 70.9979V70.9752L161.421 71.0432C163.194 74.7012 166.276 79.2653 171.435 82.98C172.711 83.9087 174.122 84.7694 175.646 85.5282C177.204 86.219 178.785 87.0005 180.546 87.4761C184.012 88.5634 187.896 89.107 191.949 88.8465C195.991 88.586 200.202 87.5101 204.164 85.5169C208.116 83.5349 211.819 80.6244 214.788 76.8983C217.78 73.195 219.914 68.6422 220.975 63.7384C222.025 58.8346 221.98 53.5457 220.535 48.5173L219.981 46.6259L219.259 44.8026L218.898 43.8966L218.457 43.0245L217.577 41.2918C217.261 40.7255 216.899 40.2045 216.561 39.6609C216.211 39.1286 215.906 38.5624 215.488 38.0754C214.698 37.0788 213.964 36.0368 213.049 35.1648C209.595 31.4841 205.361 28.7434 200.902 27.0672C196.42 25.4251 191.723 24.8701 187.298 25.2439C182.861 25.6176 178.706 26.92 175.105 28.8226C171.503 30.7253 168.466 33.2395 166.061 35.9802C164.82 37.3279 163.86 38.8115 162.9 40.2272C162.087 41.7334 161.229 43.1491 160.654 44.6214C158.193 50.4992 157.944 55.9919 158.351 60.0237L158.373 59.9444C156.307 62.3907 154.715 64.282 153.62 65.5731C153.101 66.196 152.706 66.6716 152.423 67.0001C152.152 67.3172 152.04 67.4757 152.04 67.4757C152.04 67.4757 152.198 67.3059 152.48 66.9888C152.773 66.649 153.191 66.1847 153.733 65.5618C154.839 64.3047 156.443 62.47 158.542 60.0803C158.565 60.0577 158.576 60.0237 158.565 60.0011C158.204 55.9919 158.497 50.5558 160.959 44.7573C161.546 43.2963 162.392 41.9033 163.205 40.4197C164.154 39.0267 165.113 37.5544 166.344 36.2294C168.726 33.5226 171.729 31.065 175.297 29.1964C178.853 27.3277 182.962 26.0593 187.331 25.6969C191.701 25.3345 196.318 25.8894 200.732 27.5089C205.124 29.1624 209.29 31.8691 212.688 35.4819C213.58 36.3426 214.303 37.3732 215.082 38.3472C215.488 38.8228 215.793 39.3891 216.143 39.9101C216.47 40.4424 216.843 40.9633 217.148 41.5183L218.017 43.217L218.446 44.0664L218.796 44.9611L219.507 46.7505L220.049 48.6079C221.483 53.557 221.528 58.7553 220.489 63.5798C219.451 68.4044 217.351 72.8892 214.416 76.5359C211.503 80.2053 207.867 83.0706 203.972 85.0412C200.078 87.0118 195.934 88.0877 191.949 88.3595C187.952 88.6313 184.114 88.099 180.693 87.0458C178.954 86.5814 177.385 85.8113 175.838 85.1431C174.337 84.3957 172.937 83.5463 171.661 82.6403C166.536 78.9935 163.454 74.5087 161.647 70.8846C161.625 70.828 161.557 70.8054 161.5 70.828C161.455 70.8507 161.433 70.9073 161.444 70.9526V70.9752L161.591 70.8507C158.509 69.7521 156.149 68.9027 154.523 68.3251C153.722 68.042 153.112 67.8268 152.683 67.6796C152.265 67.5324 152.04 67.4644 152.04 67.4644L152.028 67.521Z" fill="#263238"/>
<path d="M189.826 77.7022C200.139 77.7022 208.499 69.3156 208.499 58.9703C208.499 48.6249 200.139 40.2383 189.826 40.2383C179.513 40.2383 171.152 48.6249 171.152 58.9703C171.152 69.3156 179.513 77.7022 189.826 77.7022Z" fill="#8639D8"/>
<path d="M203.766 69.3868C210.63 61.6649 209.953 49.8239 202.255 42.9392C194.558 36.0544 182.754 36.733 175.891 44.4549C169.028 52.1767 169.704 64.0177 177.402 70.9025C185.099 77.7872 196.903 77.1086 203.766 69.3868Z" fill="#8639D8"/>
<path d="M202.324 56.9092C202.324 63.8403 196.724 69.4576 189.815 69.4576C182.905 69.4576 177.306 63.8403 177.306 56.9092C177.306 49.9782 182.905 44.3608 189.815 44.3608C196.724 44.3608 202.324 49.9782 202.324 56.9092Z" fill="white"/>
<path d="M195.945 56.9093C195.945 60.2955 193.202 63.0476 189.826 63.0476C186.45 63.0476 183.707 60.2955 183.707 56.9093C183.707 53.523 186.45 50.771 189.826 50.771C193.202 50.771 195.945 53.523 195.945 56.9093Z" fill="#8639D8"/>
<path d="M202.831 43.1944L202.323 39.1966L206.376 34.8477L206.67 39.1626L202.831 43.1944Z" fill="#455A64"/>
<path d="M211.536 40.0118L207.426 39.6833L203.306 43.6585L207.426 44.1002L211.536 40.0118Z" fill="#455A64"/>
<path d="M206.84 38.5509C204.898 40.4988 202.967 42.4354 201.025 44.3834C197.954 47.4639 194.884 50.5556 191.802 53.6361C191.09 54.3496 190.39 55.0518 189.679 55.7653C189.013 56.4448 190.052 57.4754 190.729 56.8072C192.671 54.8592 194.601 52.9226 196.543 50.9747C199.614 47.8942 202.685 44.8024 205.767 41.722C206.478 41.0085 207.178 40.3063 207.889 39.5928C208.556 38.9133 207.517 37.8827 206.84 38.5509Z" fill="#263238"/>
<path d="M315.018 206.267C312.049 194.285 310.107 193.628 302.994 178.407H297.711L246.986 177.523L242.831 186.753C238.225 199.2 235.075 206.629 233.777 215.735C233.28 219.257 233.235 223.3 233.63 227.705H317.118C318.405 221.488 316.294 211.431 315.007 206.267H315.018Z" fill="#263238"/>
<path d="M259.754 39.5476C255.431 43.0358 253.003 48.7437 253.489 54.2818C253.726 56.9772 254.493 60.035 252.766 62.1075C251.061 64.1574 247.663 64.1347 246.026 66.2412C244.096 68.7215 245.766 72.3795 245.1 75.46C244.468 78.3479 241.465 80.4997 238.541 80.16C241.996 82.9346 246.218 84.724 250.61 85.279C251.716 83.8293 252.823 82.3684 253.929 80.9188C252.665 82.4477 253.026 84.8599 254.279 86.4002C255.532 87.9404 257.44 88.7672 259.337 89.3447C268.369 92.1194 278.676 90.3414 286.252 84.6787" fill="#263238"/>
<path d="M310.456 62.8437C309.768 60.7825 308.616 58.8799 308.142 56.7621C307.126 52.2093 309.294 47.045 307.047 42.9566C305.444 40.046 302.079 38.653 298.907 37.7017C295.735 36.7504 292.325 35.9576 289.943 33.6472C288.193 31.9598 287.188 29.6154 285.45 27.9167C282.966 25.4931 279.331 24.7003 275.865 24.5191C272.308 24.3379 268.65 24.7116 265.467 26.3198C262.294 27.928 259.664 30.8952 259.133 34.4287C258.874 36.1501 259.099 37.9395 258.58 39.6043C258.004 41.4277 256.593 42.8547 255.735 44.5648C253.917 48.1662 254.967 52.9908 258.117 55.505L282.785 86.8306C287.922 88.7219 300.296 86.253 304.224 82.4251C308.142 78.5972 312.206 68.0534 310.456 62.8551V62.8437Z" fill="#263238"/>
<path d="M258.738 51.4844C259.675 44.3042 265.027 35.7876 272.128 37.022L291.908 43.9984C294.064 44.3721 295.159 46.0822 294.967 48.268L290.575 99.9112L266.811 104.237L266.98 97.8613C267.217 93.4898 267.465 89.5146 267.465 89.5599C267.465 89.5599 258.388 87.4194 257.293 75.2674C256.751 69.2311 257.7 59.4574 258.738 51.4844Z" fill="#FFBF9D"/>
<path d="M259.991 62.9684C259.912 63.7838 260.521 64.52 261.368 64.6219C262.215 64.7238 262.96 64.1462 263.039 63.3422C263.118 62.5267 262.508 61.7906 261.662 61.6887C260.815 61.5867 260.07 62.1643 259.979 62.9684H259.991Z" fill="#263238"/>
<path d="M275.514 63.8178C275.435 64.6332 276.045 65.3693 276.892 65.4713C277.738 65.5732 278.483 64.9956 278.562 64.1915C278.641 63.3761 278.032 62.64 277.185 62.538C276.338 62.4361 275.593 63.0137 275.503 63.8178H275.514Z" fill="#263238"/>
<path d="M259.766 57.4304C259.935 57.7135 261.357 56.7962 263.141 57.034C264.936 57.2492 266.088 58.4949 266.325 58.2684C266.438 58.1665 266.291 57.6795 265.794 57.1246C265.297 56.5696 264.406 55.9694 263.288 55.8222C262.17 55.6863 261.165 56.0374 260.556 56.4564C259.935 56.8754 259.675 57.3058 259.766 57.4304Z" fill="#263238"/>
<path d="M275.831 58.5967C276.045 58.8572 277.445 57.8152 279.364 57.8832C281.284 57.9172 282.661 59.027 282.876 58.7779C282.977 58.6646 282.774 58.2116 282.176 57.7133C281.589 57.215 280.573 56.7167 279.376 56.6827C278.179 56.6487 277.152 57.1017 276.553 57.5661C275.944 58.0417 275.729 58.4834 275.831 58.5967Z" fill="#263238"/>
<path d="M269.915 70.0127C269.926 69.9221 268.91 69.6729 267.262 69.3445C266.844 69.2766 266.449 69.1633 266.393 68.8689C266.314 68.5517 266.517 68.1101 266.754 67.6344C267.217 66.6378 267.702 65.5959 268.222 64.4973C270.265 60.0238 271.767 56.3318 271.586 56.2525C271.405 56.1732 269.61 59.7294 267.567 64.2028C267.07 65.3014 266.607 66.3546 266.156 67.3626C265.964 67.8383 265.648 68.3592 265.828 69.0048C265.919 69.3332 266.212 69.5823 266.483 69.6729C266.743 69.7749 266.98 69.7975 267.194 69.8202C268.865 70.024 269.904 70.1033 269.915 70.0014V70.0127Z" fill="#263238"/>
<path d="M267.465 89.5601C267.465 89.5601 275.492 90.6247 283.79 86.3438C283.79 86.3438 279.195 94.5093 267.284 92.5726L267.465 89.5601Z" fill="#FF9A6C"/>
<path d="M275.006 74.8033C274.78 74.4182 274.532 74.0218 274.148 73.7953C273.719 73.5575 273.2 73.5688 272.714 73.6594C272.014 73.7953 271.326 74.1011 270.852 74.6334C270.377 75.1657 270.152 75.9471 270.4 76.6266C270.592 77.3175 271.631 77.6912 272.33 77.8044C273.03 77.9177 273.764 77.7138 274.385 77.3514C274.905 77.0457 275.401 76.57 275.424 75.9698C275.435 75.5507 275.221 75.1543 275.006 74.7919V74.8033Z" fill="#FF9A6C"/>
<path d="M274.645 72.4702C274.374 72.4362 274.25 74.2369 272.636 75.4148C271.021 76.5926 269.113 76.2642 269.091 76.5133C269.057 76.6266 269.497 76.887 270.299 76.9663C271.089 77.0456 272.263 76.8644 273.257 76.1509C274.25 75.4261 274.713 74.4181 274.826 73.682C274.95 72.9345 274.769 72.4702 274.657 72.4815L274.645 72.4702Z" fill="#263238"/>
<path d="M275.921 52.1186C276.057 52.5829 277.717 52.481 279.647 52.8434C281.578 53.1719 283.102 53.84 283.384 53.455C283.508 53.2738 283.271 52.8321 282.661 52.3451C282.063 51.8695 281.092 51.3825 279.941 51.1786C278.789 50.9748 277.705 51.088 276.983 51.3258C276.249 51.5637 275.865 51.8921 275.921 52.1186Z" fill="#263238"/>
<path d="M260.725 51.3599C261.03 51.7563 262.362 51.4505 263.92 51.5411C265.489 51.5751 266.787 51.9941 267.126 51.6204C267.273 51.4392 267.092 51.0428 266.539 50.6464C265.997 50.25 265.06 49.899 263.976 49.8537C262.904 49.8084 261.944 50.0915 261.38 50.4426C260.804 50.7936 260.589 51.1674 260.725 51.3599Z" fill="#263238"/>
<path d="M298.963 45.8786C297.846 44.1798 295.847 43.3304 293.951 42.6056C285.754 39.5251 277.197 37.43 268.515 36.3767C267.453 38.1774 268.47 40.5897 270.118 41.8808C271.755 43.1605 273.855 43.6588 275.819 44.3723C277.772 45.0858 279.782 46.1957 280.606 48.1097C281.475 50.1482 280.787 52.5831 281.554 54.667C282.887 58.2458 287.899 59.367 289.198 62.9571C290.18 65.6751 288.644 68.5857 288.272 71.4623C287.854 74.7127 289.085 78.1329 291.478 80.364C293.363 82.1307 295.926 83.0934 298.5 83.1274C298.997 72.7987 299.483 62.4814 299.979 52.1528C300.081 50.001 300.137 47.6906 298.952 45.8899L298.963 45.8786Z" fill="#263238"/>
<path d="M319.94 71.7455C318.303 70.2959 316.248 69.0614 315.582 66.9776C314.611 63.9424 317.016 60.341 315.413 57.5889C313.957 55.0747 309.746 55.2446 308.391 52.6738C307.33 50.6692 308.504 48.8685 308.097 47.1017C307.68 45.335 305.162 43.8061 303.367 44.0326L289.514 64.5993C288.272 71.4624 286.997 75.1204 288.51 79.1182C289.334 81.304 290.406 83.4445 290.745 85.7548C291.084 88.0765 290.519 90.704 288.645 92.097C297.056 92.6746 304.88 88.1898 312.116 83.8522C314.668 82.3233 317.219 80.7944 319.771 79.2655C320.572 78.7898 321.397 78.2802 321.871 77.4761C322.977 75.5961 321.6 73.1951 319.952 71.7455H319.94Z" fill="#263238"/>
<path d="M312.296 81.7796C312.296 81.7796 312.003 81.8929 311.404 81.9608C310.806 82.0288 309.903 82.0627 308.785 81.8023C307.679 81.5418 306.324 80.9868 305.116 79.8656C303.908 78.7671 302.926 77.0343 302.666 74.9618C302.542 73.9312 302.598 72.8213 302.915 71.7228C303.231 70.6242 303.829 69.5936 304.439 68.5744C305.048 67.5551 305.714 66.5018 306.019 65.3127C306.313 64.1349 306.302 62.7419 305.534 61.7452C304.755 60.726 303.332 60.4881 302.011 59.9672C301.345 59.7067 300.657 59.299 300.205 58.6534C299.753 58.0079 299.595 57.2038 299.607 56.445C299.607 54.9048 300.25 53.4891 300.521 52.0508C300.657 51.326 300.702 50.5899 300.521 49.899C300.341 49.2082 299.9 48.6079 299.291 48.2002C298.071 47.3395 296.525 47.2149 295.034 47.1017C293.533 47.0111 291.964 46.6826 290.688 45.8672C289.401 45.0858 288.362 43.9646 287.696 42.6735C287.03 41.3711 286.782 39.9668 286.567 38.6417C286.353 37.3167 286.161 36.0256 285.709 34.8591C285.257 33.7039 284.546 32.7073 283.699 31.8919C281.995 30.295 279.838 29.4569 277.863 29.3097C275.864 29.1625 274.069 29.7061 272.669 30.4536C271.258 31.1897 270.208 32.1184 269.463 32.9564C267.961 34.6552 267.555 35.8897 267.487 35.8557C267.487 35.8557 267.51 35.7764 267.566 35.6405C267.634 35.5046 267.702 35.2781 267.849 35.0176C268.12 34.4854 268.571 33.7152 269.316 32.8432C270.061 31.9711 271.111 31.0085 272.545 30.2271C273.968 29.4456 275.819 28.8567 277.885 28.9813C279.94 29.1059 282.175 29.9552 283.982 31.6087C284.862 32.4468 285.63 33.5001 286.104 34.7119C286.59 35.935 286.782 37.2487 287.007 38.5738C287.233 39.8875 287.481 41.2465 288.114 42.4583C288.746 43.6588 289.728 44.7234 290.947 45.4595C292.155 46.2296 293.589 46.5241 295.079 46.6147C296.558 46.7279 298.207 46.8412 299.584 47.7925C300.261 48.2455 300.792 48.959 301.007 49.7631C301.221 50.5559 301.165 51.3826 301.018 52.1301C300.724 53.659 300.103 55.0294 300.103 56.445C300.103 57.1472 300.239 57.8267 300.611 58.3703C300.984 58.9139 301.571 59.2763 302.203 59.5255C302.836 59.786 303.513 59.9558 304.168 60.2277C304.811 60.4881 305.466 60.8732 305.906 61.4508C306.798 62.6399 306.776 64.1575 306.448 65.4033C306.11 66.6944 305.41 67.7589 304.8 68.7782C304.179 69.7975 303.592 70.7828 303.287 71.8247C302.982 72.8666 302.915 73.9199 303.027 74.9165C303.253 76.8984 304.168 78.5746 305.319 79.6618C306.471 80.7603 307.769 81.3266 308.842 81.6097C311.043 82.1533 312.319 81.689 312.308 81.7796H312.296Z" fill="#455A64"/>
<path d="M234.883 73.0478C234.962 73.0478 234.431 73.8632 234.928 75.2563C235.176 75.9131 235.729 76.7059 236.689 77.0117C237.626 77.3175 238.913 77.057 239.76 76.1396C240.189 75.6866 240.426 75.0524 240.46 74.3729C240.494 73.682 240.358 72.9572 240.121 72.2437C239.658 70.8168 238.733 69.2765 238.857 67.4192C238.936 65.6185 239.839 63.7611 241.363 62.5267C242.12 61.9038 243.011 61.4281 243.971 61.1223C244.931 60.8052 245.958 60.726 246.963 60.658C247.968 60.6014 248.95 60.5561 249.864 60.3296C250.767 60.1031 251.592 59.6274 252.111 58.9026C252.63 58.1778 252.856 57.2831 252.901 56.3997C252.958 55.5163 252.845 54.6443 252.653 53.8062C252.292 52.1301 251.772 50.4993 251.851 48.8797C251.919 47.2829 252.517 45.8559 253.308 44.7687C254.109 43.6701 255.159 42.9906 256.017 42.4243C256.898 41.8581 257.643 41.3711 258.196 40.8841C259.314 39.9215 259.494 39.0607 259.551 39.0947C259.551 39.0947 259.551 39.1514 259.517 39.242C259.483 39.3326 259.449 39.4798 259.348 39.661C259.19 40.0234 258.862 40.5104 258.32 41.0313C257.778 41.5523 257.033 42.0733 256.164 42.6622C255.306 43.2511 254.324 43.9306 253.579 44.9839C252.833 46.0258 252.292 47.3961 252.246 48.9024C252.19 50.42 252.698 52.0055 253.082 53.7156C253.274 54.5763 253.409 55.4937 253.353 56.4337C253.296 57.3737 253.071 58.359 252.484 59.1857C251.896 60.0238 250.948 60.5674 249.966 60.8052C248.984 61.0544 247.968 61.0884 246.974 61.1563C245.981 61.2129 245.01 61.2922 244.107 61.598C243.203 61.8811 242.368 62.3341 241.657 62.9117C240.223 64.0556 239.387 65.777 239.297 67.4532C239.162 69.1519 240.02 70.6356 240.494 72.1305C240.731 72.878 240.878 73.6594 240.832 74.4069C240.787 75.1543 240.494 75.8905 240.008 76.3888C239.037 77.408 237.626 77.6572 236.588 77.2835C235.526 76.9097 234.973 76.0264 234.736 75.3242C234.488 74.5994 234.544 73.9878 234.634 73.6141C234.736 73.229 234.86 73.0592 234.86 73.0592L234.883 73.0478Z" fill="#263238"/>
<path d="M249.3 97.9973C241.138 99.4243 233.72 105.732 229.983 115.472C226.596 124.295 222.645 132.641 223.04 132.619L242.267 142.596L243.644 139.686L246.263 171.77L238.157 191.057C238.157 191.057 256.413 201.408 271.507 201.51C285.619 201.612 311.563 194.183 311.563 194.183L304.778 175.134L309.904 142.517L309.96 144.873L327.933 141.362C327.933 141.362 325.348 121.237 321.092 111.078C317.276 101.961 302.61 98.0539 302.61 98.0539L290.429 94.8715C290.429 94.8715 287.934 102.188 277.197 101.587C266.449 100.987 267.296 94.3506 267.296 94.3506L249.311 97.986L249.3 97.9973Z" fill="#8639D8"/>
<path d="M313.155 118.632C313.155 118.632 313.132 118.711 313.11 118.87C313.087 119.051 313.065 119.266 313.031 119.549C312.952 120.161 312.85 121.01 312.726 122.041C312.466 124.147 312.071 127.058 311.608 130.263C311.146 133.457 310.728 136.356 310.412 138.474C310.265 139.504 310.141 140.354 310.05 140.965C310.017 141.237 309.983 141.464 309.96 141.645C309.937 141.803 309.938 141.883 309.938 141.883C309.938 141.883 309.96 141.803 309.994 141.656C310.028 141.486 310.073 141.26 310.118 140.988C310.22 140.376 310.367 139.538 310.536 138.508C310.875 136.412 311.326 133.513 311.789 130.297C312.241 127.092 312.613 124.181 312.85 122.063C312.963 121.01 313.042 120.149 313.087 119.561C313.11 119.277 313.121 119.051 313.132 118.881C313.132 118.722 313.132 118.643 313.132 118.643L313.155 118.632Z" fill="#263238"/>
<path d="M244.062 117.884C244.062 117.884 244.039 117.975 244.028 118.134C244.005 118.326 243.983 118.564 243.96 118.858C243.903 119.493 243.836 120.41 243.768 121.543C243.633 123.808 243.52 126.945 243.565 130.41C243.61 133.876 243.791 137.013 243.971 139.267C244.062 140.399 244.152 141.316 244.231 141.939C244.265 142.234 244.299 142.483 244.321 142.664C244.344 142.834 244.355 142.913 244.366 142.913C244.366 142.913 244.366 142.823 244.366 142.653C244.355 142.46 244.333 142.222 244.321 141.928C244.276 141.271 244.208 140.365 244.129 139.244C243.983 136.979 243.813 133.853 243.779 130.388C243.745 126.933 243.824 123.796 243.926 121.531C243.983 120.421 244.028 119.504 244.062 118.847C244.073 118.553 244.084 118.304 244.095 118.122C244.095 117.952 244.095 117.862 244.095 117.862L244.062 117.884Z" fill="#263238"/>
<path d="M279.693 164.658C278.067 164.567 276.464 165.134 275.29 166.266C273.438 168.067 270.176 170.57 266.518 170.355C260.85 170.026 257.158 165.247 257.52 158.814C257.892 152.37 262.115 148.055 267.771 148.384C271.429 148.599 274.375 151.453 276.012 153.457C277.04 154.726 278.575 155.473 280.201 155.564C283.464 155.756 286.252 153.253 286.444 149.98L287.517 112.245L228.539 110.082L188.234 108.655L186.88 144.522C186.688 147.795 189.736 150.252 192.999 150.445C194.624 150.535 196.228 149.969 197.402 148.837C199.253 147.036 202.516 144.533 206.174 144.748C211.841 145.077 215.533 149.844 215.172 156.289C214.799 162.733 210.577 167.048 204.921 166.719C201.263 166.504 198.316 163.65 196.679 161.645C195.652 160.377 194.116 159.629 192.491 159.539C189.228 159.346 186.439 161.849 186.247 165.122L184.509 207.354L243.836 209.619L278.643 210.944L282.933 211.103L285.27 170.932C285.462 167.659 282.967 164.862 279.704 164.669L279.693 164.658Z" fill="#E0E0E0"/>
<path d="M279.692 164.658C279.692 164.658 279.975 164.658 280.528 164.748C281.07 164.85 281.905 165.077 282.808 165.711C283.7 166.334 284.682 167.421 285.123 169.007C285.36 169.788 285.371 170.706 285.292 171.623C285.247 172.552 285.19 173.548 285.134 174.613C284.66 183.073 283.971 195.44 283.091 211.103V211.273H282.91C257.993 210.344 224.023 209.087 184.486 207.615H184.215V207.331C184.554 199.064 184.904 190.536 185.253 181.759C185.434 177.376 185.615 172.925 185.795 168.418C185.841 167.297 185.886 166.164 185.942 165.032C186.021 163.842 186.45 162.687 187.161 161.725C188.573 159.777 191.192 158.814 193.54 159.392C194.714 159.663 195.809 160.286 196.634 161.181C197.39 162.087 198.135 162.925 199.004 163.673C200.709 165.168 202.809 166.345 205.09 166.413C207.37 166.527 209.685 165.734 211.378 164.194C213.105 162.665 214.167 160.456 214.596 158.157C214.833 157.002 214.889 155.813 214.833 154.646C214.776 153.469 214.573 152.291 214.167 151.192C213.399 148.972 211.83 147.013 209.707 145.971C207.596 144.918 205.067 144.714 202.843 145.552C201.725 145.96 200.675 146.56 199.693 147.262C199.208 147.613 198.733 147.998 198.282 148.395C197.83 148.78 197.413 149.256 196.871 149.629C195.967 150.263 194.884 150.649 193.789 150.716C192.682 150.796 191.598 150.581 190.582 150.184C188.595 149.391 186.811 147.613 186.597 145.348C186.518 144.216 186.642 143.242 186.653 142.189L186.766 139.074C186.845 137.002 186.924 134.94 187.003 132.891C187.32 124.668 187.624 116.582 187.929 108.632V108.337H188.223C224.779 109.685 258.468 110.92 287.505 111.984H287.742V112.233C287.505 120.523 287.268 128.462 287.053 135.994C286.94 139.754 286.839 143.423 286.726 146.979C286.703 147.874 286.669 148.757 286.647 149.629C286.636 150.513 286.444 151.43 286.06 152.234C285.315 153.865 283.824 155.065 282.165 155.53C280.505 155.994 278.688 155.711 277.288 154.828C276.576 154.409 275.989 153.752 275.515 153.151C275.007 152.551 274.465 151.996 273.889 151.475C272.749 150.445 271.473 149.584 270.107 149.063C268.741 148.508 267.262 148.44 265.862 148.621C263.029 148.961 260.669 150.784 259.359 153.016C258.005 155.258 257.587 157.817 257.643 160.162C257.722 162.517 258.377 164.748 259.608 166.447C260.805 168.18 262.521 169.313 264.259 169.834C265.998 170.377 267.748 170.366 269.227 169.935C270.717 169.516 271.959 168.792 272.986 168.078C274.025 167.353 274.838 166.595 275.549 165.938C276.305 165.315 277.073 164.998 277.705 164.828C278.338 164.658 278.846 164.635 279.173 164.624C279.5 164.624 279.67 164.647 279.67 164.647C279.67 164.681 278.981 164.556 277.728 164.896C277.107 165.077 276.351 165.405 275.617 166.028C274.917 166.674 274.104 167.467 273.065 168.203C272.027 168.939 270.785 169.675 269.272 170.117C267.77 170.57 265.975 170.592 264.191 170.049C262.408 169.528 260.635 168.361 259.405 166.595C258.14 164.85 257.463 162.574 257.372 160.173C257.305 157.783 257.722 155.167 259.1 152.857C260.432 150.558 262.882 148.655 265.817 148.293C267.262 148.1 268.809 148.18 270.232 148.746C271.665 149.29 272.975 150.162 274.138 151.215C274.725 151.736 275.278 152.313 275.797 152.914C276.305 153.548 276.813 154.103 277.491 154.51C278.812 155.349 280.517 155.609 282.074 155.156C283.621 154.726 285.01 153.593 285.71 152.064C286.455 150.558 286.207 148.735 286.319 146.968C286.421 143.412 286.511 139.742 286.613 135.982C286.816 128.451 287.042 120.523 287.268 112.233L287.494 112.482C258.456 111.441 224.768 110.24 188.211 108.938L188.505 108.655C188.2 116.605 187.895 124.702 187.59 132.913C187.511 134.963 187.432 137.036 187.353 139.097L187.241 142.211C187.229 143.231 187.105 144.329 187.184 145.28C187.365 147.274 188.957 148.893 190.808 149.629C191.734 149.992 192.761 150.196 193.755 150.116C194.748 150.048 195.73 149.709 196.543 149.131C197.017 148.803 197.424 148.35 197.909 147.93C198.383 147.523 198.869 147.126 199.366 146.764C200.382 146.039 201.477 145.405 202.662 144.986C205.033 144.091 207.754 144.306 209.989 145.428C212.259 146.549 213.93 148.644 214.742 150.977C215.171 152.143 215.386 153.378 215.442 154.601C215.499 155.824 215.442 157.059 215.194 158.259C214.742 160.66 213.636 162.982 211.796 164.613C209.989 166.266 207.506 167.115 205.09 166.98C202.628 166.912 200.404 165.643 198.643 164.103C197.751 163.333 196.95 162.427 196.227 161.566C195.482 160.751 194.489 160.196 193.427 159.947C191.282 159.414 188.911 160.286 187.636 162.053C186.981 162.925 186.597 163.978 186.529 165.054C186.484 166.187 186.428 167.308 186.382 168.441C186.191 172.937 186.01 177.387 185.829 181.77C185.468 190.547 185.107 199.075 184.768 207.343L184.508 207.071C224.045 208.611 258.016 209.948 282.921 210.922L282.741 211.08C283.689 195.429 284.434 183.061 284.942 174.601C285.01 173.548 285.066 172.552 285.123 171.612C285.213 170.672 285.202 169.811 284.976 169.041C284.558 167.489 283.61 166.413 282.741 165.779C281.86 165.145 281.047 164.896 280.505 164.782C279.963 164.669 279.681 164.658 279.681 164.647L279.692 164.658Z" fill="#263238"/>
<path d="M195.629 201.306C195.629 201.306 192.389 202.02 193.992 208.849C194.997 213.13 197.639 210.661 197.639 210.661C197.639 210.661 200.134 212.915 201.918 209.88L202.29 210.31C202.29 210.31 204.255 213.64 207.111 210.446C207.111 210.446 209.166 211.397 210.543 209.8C211.92 208.203 209.685 204.636 209.685 204.636C209.685 204.636 209.222 199.381 207.822 199.188C206.422 198.985 205.937 200.072 205.756 200.389C205.576 200.706 205.576 204.092 205.576 204.092C205.576 204.092 205.203 199.506 204.266 199.143C202.618 198.52 200.992 198.826 201.59 204.375C201.59 204.375 201.218 200.242 200.315 199.834C199.276 199.358 198.124 200.106 197.537 201.635C196.95 203.175 197.153 204.489 197.153 204.489C197.153 204.489 197.673 200.57 195.641 201.306H195.629Z" fill="#FFBF9D"/>
<path d="M197.65 210.457C197.797 210.434 197.605 208.77 197.515 206.708C197.413 204.647 197.436 202.971 197.289 202.96C197.153 202.948 196.916 204.636 197.018 206.731C197.119 208.826 197.526 210.48 197.661 210.457H197.65Z" fill="#FF9A6C"/>
<path d="M202.087 209.959C202.222 209.925 201.974 208.362 201.816 206.425C201.647 204.489 201.635 202.903 201.489 202.903C201.353 202.903 201.15 204.5 201.319 206.471C201.489 208.441 201.963 209.993 202.098 209.959H202.087Z" fill="#FF9A6C"/>
<path d="M207.348 210.514C207.484 210.446 206.682 208.928 206.208 206.901C205.723 204.885 205.745 203.164 205.598 203.164C205.474 203.141 205.215 204.908 205.723 207.014C206.219 209.121 207.247 210.582 207.348 210.514Z" fill="#FF9A6C"/>
<path d="M327.087 141.52L310.141 144.748L310.751 159.822L294.042 180.049L297.689 190.026C301.042 187.637 319.873 174.783 326.387 168.112C329.176 165.258 327.087 141.52 327.087 141.52Z" fill="#FFBF9D"/>
<path d="M320.652 161.102C320.652 161.102 320.155 160.66 319.297 160.105C318.868 159.822 318.337 159.55 317.739 159.312C317.129 159.086 316.452 158.916 315.729 158.836C315.007 158.769 314.318 158.814 313.686 158.916C313.065 159.029 312.512 159.199 312.06 159.391C311.146 159.765 310.627 160.162 310.615 160.105C310.615 160.094 310.739 159.992 310.977 159.81C311.089 159.72 311.236 159.618 311.417 159.527C311.597 159.425 311.789 159.301 312.026 159.21C312.478 158.995 313.043 158.802 313.675 158.678C314.307 158.565 315.018 158.508 315.752 158.576C316.486 158.655 317.186 158.848 317.796 159.086C318.405 159.335 318.936 159.629 319.365 159.946C319.579 160.082 319.76 160.252 319.929 160.377C320.099 160.501 320.223 160.637 320.336 160.75C320.55 160.966 320.663 161.09 320.652 161.102Z" fill="#FF9A6C"/>
<path d="M294.29 179.505C294.29 179.505 292.585 176.957 290.915 176.323C289.244 175.677 286.805 175.609 286.433 175.247C286.06 174.873 285.349 173.559 284.412 174.16C283.475 174.76 281.68 177.455 284.965 179.449L287.403 180.264C287.403 180.264 286.297 182.608 285.383 183.378C284.468 184.148 272.738 191.85 272.738 191.85C272.738 191.85 271.361 192.541 271.53 193.752C271.699 194.964 274.115 195.111 274.115 195.111C274.115 195.111 275.199 197.037 277.198 196.957C279.196 196.878 280.099 196.606 280.099 196.606C280.099 196.606 281.51 198.803 284.096 197.931C286.681 197.059 298.321 189.596 298.321 189.596L297.203 180.139L294.29 179.505Z" fill="#FFBF9D"/>
<path d="M282.628 191.227C282.695 191.317 281.036 192.642 278.676 193.707C276.317 194.783 274.228 195.145 274.206 195.043C274.172 194.919 276.181 194.364 278.496 193.311C280.821 192.269 282.56 191.125 282.628 191.238V191.227Z" fill="#FF9A6C"/>
<path d="M285.879 193.798C285.958 193.866 284.818 195.1 282.989 195.983C281.16 196.878 279.489 197.003 279.478 196.901C279.455 196.776 281.036 196.459 282.797 195.598C284.569 194.749 285.8 193.707 285.879 193.809V193.798Z" fill="#FF9A6C"/>
<path d="M147.749 201.08L69.0817 196.006L61.9014 227.706H149.702C150.932 212.734 147.749 201.08 147.749 201.08Z" fill="#263238"/>
<path d="M102.207 15.0174C103.392 13.0808 105.887 12.0615 108.066 12.6278C110.81 10.7365 114.863 11.1102 117.222 13.4658C119.266 12.4352 121.84 12.5711 123.77 13.8056C125.689 15.04 126.897 17.3391 126.83 19.6494C129.133 19.4456 131.492 20.8726 132.407 23.013C133.321 25.1535 132.723 27.8602 130.996 29.4118C133.423 30.4084 134.845 33.3756 134.1 35.9125C133.366 38.4493 130.567 40.1708 128.004 39.6951L102.749 21.3709C101.258 19.6608 101.021 16.9653 102.207 15.0174Z" fill="#263238"/>
<path d="M128.714 40.4993C128.613 28.5965 119.479 18.7775 107.704 17.9281L106.53 17.8488C93.8742 17.6789 89.0535 29.1061 89.2341 41.881L86.9648 89.1526L105.74 108.066L112.615 95.4834L114.986 82.9463C114.986 82.9463 127.247 81.9157 128.263 69.7071C128.76 63.8067 128.793 51.5754 128.703 40.5106L128.714 40.4993Z" fill="#AE7461"/>
<path d="M115.1 82.935C115.1 82.935 107.332 82.8444 99.5537 77.1025C99.5537 77.1025 102.196 86.4798 114.366 86.242L115.088 82.935H115.1Z" fill="#6F4439"/>
<path d="M124.402 50.7713C124.368 51.7 123.566 52.4248 122.607 52.4135C121.647 52.3908 120.902 51.632 120.936 50.7147C120.97 49.786 121.771 49.0499 122.731 49.0725C123.69 49.0839 124.436 49.854 124.402 50.7713Z" fill="#263238"/>
<path d="M125.78 46.9207C125.554 47.1358 124.312 46.0599 122.449 45.9354C120.587 45.7768 119.153 46.6489 118.972 46.3997C118.882 46.2864 119.13 45.8901 119.751 45.505C120.372 45.1086 121.399 44.7575 122.562 44.8481C123.725 44.9387 124.662 45.4371 125.193 45.924C125.735 46.411 125.893 46.8301 125.78 46.932V46.9207Z" fill="#263238"/>
<path d="M108.37 49.9445C108.337 50.8732 107.535 51.598 106.575 51.5867C105.616 51.5754 104.871 50.8052 104.904 49.8879C104.938 48.9592 105.74 48.2344 106.7 48.2457C107.659 48.2571 108.404 49.0272 108.37 49.9445Z" fill="#263238"/>
<path d="M107.987 45.3804C107.761 45.5956 106.508 44.5197 104.656 44.3951C102.794 44.2365 101.36 45.1086 101.179 44.8594C101.089 44.7462 101.337 44.3498 101.958 43.9647C102.579 43.5683 103.606 43.2173 104.769 43.3079C105.932 43.3985 106.869 43.8968 107.4 44.3838C107.942 44.8707 108.1 45.2898 107.987 45.3917V45.3804Z" fill="#263238"/>
<path d="M113.112 59.7522C113.112 59.639 114.286 59.5257 116.172 59.4238C116.646 59.4125 117.109 59.3445 117.21 59.0274C117.346 58.6877 117.188 58.1554 116.996 57.5778C116.635 56.3886 116.251 55.1315 115.856 53.8178C114.275 48.4723 113.169 44.1007 113.383 44.0328C113.598 43.9648 115.054 48.2458 116.635 53.5913C117.007 54.905 117.38 56.1621 117.719 57.3626C117.854 57.9175 118.125 58.5631 117.831 59.2652C117.673 59.6163 117.312 59.8542 116.996 59.9108C116.68 59.9787 116.42 59.9674 116.183 59.9674C114.286 59.9334 113.112 59.8542 113.112 59.7522Z" fill="#263238"/>
<path d="M107.546 60.6583C107.851 60.6583 107.704 62.6969 109.33 64.2711C110.956 65.8453 113.123 65.7773 113.123 66.0605C113.146 66.185 112.615 66.4229 111.701 66.3776C110.809 66.3436 109.522 65.9585 108.529 64.9959C107.535 64.0332 107.162 62.8101 107.162 61.9721C107.151 61.1113 107.411 60.6243 107.546 60.647V60.6583Z" fill="#263238"/>
<path d="M108.393 40.0122C108.133 40.4879 106.564 39.9329 104.611 39.8197C102.658 39.6725 101.01 40.0009 100.84 39.5026C100.773 39.2648 101.123 38.8457 101.845 38.472C102.556 38.1096 103.618 37.8378 104.792 37.9057C105.966 37.985 106.971 38.3927 107.592 38.857C108.224 39.3101 108.506 39.7744 108.393 40.0009V40.0122Z" fill="#263238"/>
<path d="M125.723 41.745C125.396 42.1754 124.109 41.745 122.562 41.745C121.015 41.6884 119.706 42.0621 119.401 41.6204C119.265 41.4053 119.469 40.9749 120.033 40.5672C120.598 40.1595 121.535 39.8197 122.596 39.8424C123.657 39.865 124.583 40.2388 125.125 40.6691C125.678 41.0995 125.859 41.5412 125.712 41.7563L125.723 41.745Z" fill="#263238"/>
<path d="M127.958 34.814C127.958 34.814 125.305 26.9316 121.783 24.8817C117.504 22.4015 115.246 27.1694 111.114 25.6745C106.982 24.1796 102.895 21.8013 98.3454 24.7798C93.3666 28.0415 95.3988 30.7369 94.7214 36.139C91.9667 58.0534 87.5411 63.9765 87.1459 53.5346C87.1008 52.3908 84.0413 51.2583 83.9284 46.4337C83.7703 40.1708 84.0751 32.6056 85.7686 28.2906C87.1911 24.6552 89.4829 22.2316 93.4569 19.6721C99.7227 15.629 107.908 16.116 113.417 17.0786C118.927 18.0413 129.166 25.2555 127.97 34.8027L127.958 34.814Z" fill="#263238"/>
<path d="M89.4715 53.3648C89.5279 51.4735 88.0264 49.8653 86.1523 49.9106C83.8718 49.9672 81.2751 51.0771 81.0832 55.7997C80.7445 64.1804 89.1554 62.7761 89.178 62.5383C89.1892 62.3797 89.3699 56.8643 89.4715 53.3648Z" fill="#AE7461"/>
<path d="M87.4842 59.3218C87.4842 59.3218 87.3375 59.4238 87.0891 59.5257C86.852 59.6276 86.4343 59.6843 86.0053 59.503C85.136 59.1406 84.4586 57.7137 84.4812 56.1961C84.4812 55.4373 84.6731 54.7125 84.9666 54.1236C85.2489 53.5233 85.6553 53.1043 86.0956 53.0477C86.5359 52.9571 86.8407 53.2402 86.931 53.478C87.0327 53.7158 86.9762 53.8857 87.0214 53.897C87.0439 53.9197 87.202 53.7611 87.1568 53.4101C87.1343 53.2402 87.0439 53.0363 86.852 52.8778C86.6601 52.7079 86.3666 52.606 86.0617 52.6286C85.4182 52.6513 84.8199 53.2175 84.5037 53.8631C84.1425 54.5086 83.9167 55.324 83.9054 56.1734C83.8941 57.8609 84.6844 59.4804 85.8698 59.8768C86.4456 60.058 86.9423 59.8994 87.202 59.7069C87.473 59.5144 87.5181 59.3218 87.4955 59.3105L87.4842 59.3218Z" fill="#6F4439"/>
<path d="M89.2574 37.0677C90.2847 37.8831 91.3572 38.7325 92.6443 38.959C93.9313 39.1855 95.4667 38.54 95.7828 37.2602C95.9183 36.6827 95.828 36.0031 96.2457 35.5728C96.7312 35.0745 97.5553 35.301 98.244 35.4256C100.637 35.8559 103.223 34.3157 104.002 31.994C104.555 32.968 105.989 33.0246 106.96 32.4923C107.931 31.96 108.597 31.0087 109.387 30.2159C110.177 29.4232 111.25 28.7437 112.334 28.9815C112.943 29.1174 113.485 29.5251 114.106 29.5138C115.201 29.4911 115.822 28.2453 116.071 27.1694C116.319 26.0935 116.533 24.8251 117.493 24.3042C118.385 23.8172 119.469 24.2136 120.462 24.4401C121.456 24.6666 122.765 24.5193 123.093 23.5454C123.262 23.0357 123.093 22.4808 122.833 22.0051C121.693 19.8647 118.938 18.7548 116.646 19.5022C116.037 16.6823 113.632 14.3493 110.81 13.8396C107.987 13.33 104.928 14.6777 103.381 17.1126C101.744 15.3799 99.2488 14.5305 96.9005 14.8929C94.5523 15.2553 92.4298 16.8295 91.3798 18.9813C89.4041 18.3018 87.0446 18.9247 85.6559 20.4875C84.256 22.0618 83.906 24.4854 84.7866 26.3993C83.2399 27.1468 81.8513 28.5511 81.7045 30.2839C81.5465 32.0167 83.0931 33.8513 84.7866 33.5229C84.0189 34.8253 84.4366 36.694 85.6785 37.5321C86.9204 38.3814 88.7945 38.0643 89.6977 36.8752" fill="#263238"/>
<path d="M84.1878 33.4437C84.1878 33.4437 83.9846 34.1345 84.5942 35.0858C84.899 35.5388 85.4297 36.0258 86.1861 36.207C86.9199 36.3882 87.857 36.2636 88.6021 35.6861L88.2521 35.6068C88.6134 36.3542 89.0988 37.1244 89.7536 37.8152C90.1827 38.2456 90.6568 38.6306 91.1987 38.8685C91.7293 39.1289 92.339 39.1969 92.8583 39.1403C93.9196 39.095 94.8679 38.5966 95.3534 37.9285C95.8388 37.2829 96.0308 36.6487 96.1436 36.241C96.2565 35.822 96.2791 35.5728 96.2565 35.5728C96.2227 35.5728 96.1324 35.788 95.963 36.1844C95.7937 36.5694 95.5566 37.1583 95.0824 37.7133C94.2131 38.8571 91.6052 39.2875 90.0923 37.4754C89.4827 36.8412 89.0085 36.1164 88.6585 35.4029L88.5343 35.1424L88.3198 35.3236C87.7102 35.822 86.9199 35.9579 86.2764 35.822C85.6216 35.6974 85.1361 35.301 84.8313 34.9159C84.2217 34.1118 84.2781 33.421 84.1991 33.4437H84.1878Z" fill="#455A64"/>
<path d="M101.212 15.4816C101.212 15.4816 101.427 15.5609 101.788 15.7421C102.138 15.9233 102.646 16.2857 102.996 16.9426L103.087 17.1124L103.211 16.9652C104.057 15.9686 105.457 14.7228 107.456 13.9867C108.449 13.6243 109.578 13.4091 110.764 13.4997C111.949 13.579 113.157 14.0093 114.196 14.7681C115.009 15.357 115.675 16.1045 116.138 16.9199C116.589 17.7467 116.849 18.6414 116.871 19.5021V19.7739L117.131 19.7173C118.395 19.4568 119.649 19.7965 120.541 20.3854C121.444 20.9744 121.986 21.8238 122.279 22.5599C122.844 24.0775 122.528 25.0741 122.618 25.0741C122.64 25.0741 122.719 24.8476 122.765 24.3946C122.81 23.9416 122.798 23.2621 122.528 22.4693C122.257 21.6765 121.715 20.7479 120.744 20.0797C119.795 19.4115 118.452 19.0151 117.041 19.2869L117.3 19.5021C117.289 18.5621 117.029 17.5768 116.533 16.6934C116.036 15.81 115.325 15.006 114.455 14.3831C113.338 13.579 112.039 13.1146 110.775 13.0467C109.51 12.9674 108.314 13.2052 107.286 13.6016C105.209 14.417 103.809 15.7534 102.996 16.818L103.211 16.8406C102.793 16.1385 102.217 15.7987 101.833 15.6402C101.438 15.4816 101.212 15.4929 101.201 15.5043L101.212 15.4816Z" fill="#455A64"/>
<path d="M76.3076 201.782C76.3076 201.782 76.4883 201.884 76.8608 202.043C77.2898 202.213 77.8204 202.428 78.4865 202.7C79.8978 203.266 81.9638 204.013 84.5491 204.863C87.1345 205.723 90.2392 206.618 93.7277 207.501C97.2163 208.351 101.089 209.166 105.187 209.823C109.285 210.457 113.225 210.876 116.804 211.137C120.394 211.375 123.634 211.477 126.344 211.454C129.065 211.443 131.255 211.363 132.779 211.25C133.49 211.194 134.066 211.16 134.529 211.126C134.924 211.092 135.139 211.069 135.139 211.046C135.139 211.024 134.924 211.024 134.529 211.024C134.077 211.024 133.49 211.035 132.779 211.046C131.266 211.092 129.065 211.114 126.355 211.08C123.646 211.058 120.417 210.922 116.849 210.65C113.282 210.355 109.364 209.936 105.277 209.302C101.19 208.645 97.3404 207.853 93.8519 207.037C90.3747 206.188 87.2587 205.327 84.6733 204.523C82.088 203.719 79.9994 203.028 78.5656 202.518C77.8882 202.292 77.3463 202.099 76.906 201.952C76.5221 201.828 76.3189 201.771 76.3189 201.794L76.3076 201.782Z" fill="#263238"/>
<path d="M128.545 90.0359L114.693 87.7595C114.693 87.7595 113.959 93.5807 104.566 93.7732C93.7387 93.9997 86.1633 84.7017 86.1633 84.7017C86.1633 84.7017 62.1613 91.6554 57.4422 95.2115C52.723 98.7676 68.1561 173.005 68.1561 173.005L69.5561 195.112C69.5561 195.112 66.4062 199.053 66.4062 202.892C66.4062 206.731 64.5095 208.702 64.5095 208.702C93.3549 216.822 124.548 224.07 150.887 216.21C150.887 216.21 150.233 203.164 148.709 199.608C147.184 196.052 147.467 195.723 147.467 195.723L143.143 157.013L138.999 119.357L128.545 90.0245V90.0359Z" fill="#455A64"/>
<path d="M128.545 90.0357C128.545 90.0357 135.387 92.1309 139.361 96.4458C143.335 100.772 152.129 115.801 152.129 115.801L144.475 140.614L133.4 135.235L128.545 90.0244V90.0357Z" fill="#455A64"/>
<path d="M137.058 118.088C137.137 118.077 137.419 119.414 137.791 121.577C138.164 123.74 138.638 126.741 139.101 130.059C139.564 133.378 139.925 136.401 140.14 138.587C140.354 140.773 140.422 142.132 140.343 142.143C140.264 142.143 140.049 140.807 139.733 138.632C139.394 136.277 138.988 133.366 138.525 130.139C138.096 126.911 137.701 123.989 137.385 121.633C137.114 119.447 136.978 118.1 137.058 118.088Z" fill="#263238"/>
<path d="M98.3671 142.132C98.1638 145.428 95.3301 147.942 92.0335 147.738C90.3965 147.636 88.8498 146.877 87.8111 145.586C86.1741 143.559 83.2049 140.66 79.5132 140.422C73.7892 140.071 69.5104 144.408 69.1153 150.909C68.7089 157.41 72.4232 162.246 78.1471 162.608C81.8388 162.835 85.1355 160.332 87.0208 158.52C88.2063 157.376 89.832 156.81 91.469 156.911C94.7543 157.115 97.2607 159.958 97.0574 163.265L94.5172 203.821L184.497 207.66L186.45 165.02C186.653 161.725 189.487 159.335 192.772 159.539C194.409 159.641 195.741 160.456 196.78 161.736C198.417 163.763 200.585 166.866 205.292 166.719C211.728 166.504 215.295 162.733 215.69 156.232C216.097 149.731 212.382 144.895 206.658 144.533C202.967 144.306 199.659 146.651 197.785 148.463C196.599 149.607 194.985 150.332 193.337 150.23C190.051 150.026 186.98 147.523 187.184 144.227L188.719 108.02L99.6089 104.215L98.3671 142.132Z" fill="#8639D8"/>
<path d="M54.9014 97.1934C54.9014 97.1934 49.0759 109.923 48.4888 114.023C48.0147 117.33 44.3681 159.505 44.052 165.711C43.7358 171.917 41.6698 184.839 49.4823 189.302C54.8563 192.371 82.0194 196.776 80.405 196.538C83.1597 191.159 79.4115 187.705 84.3564 183.209L65.8976 169.856L69.5329 124.906L54.9014 97.2047V97.1934Z" fill="#AE7461"/>
<path d="M55.658 176.153C55.5338 176.119 56.9337 173.548 59.8916 171.646C62.827 169.709 65.7284 169.471 65.7172 169.596C65.7623 169.766 62.9963 170.23 60.1852 172.099C57.3514 173.922 55.7935 176.266 55.6693 176.164L55.658 176.153Z" fill="#6F4439"/>
<path d="M86.5016 183.231C86.5016 183.231 89.5273 180.536 91.8868 180.264C94.2464 179.992 97.4075 180.717 97.9946 180.355C98.593 180.004 99.9364 178.543 100.941 179.619C101.946 180.694 103.369 184.749 98.5026 186.233L95.1044 186.47C95.1044 186.47 95.7479 189.857 96.6624 191.136C97.5769 192.427 110.12 206.199 110.12 206.199C110.12 206.199 111.666 207.547 111.034 209.042C110.413 210.537 107.263 209.925 107.263 209.925C107.263 209.925 105.231 212.043 102.702 211.284C100.162 210.525 99.0897 209.868 99.0897 209.868C99.0897 209.868 96.5608 212.224 93.5238 210.253C90.4869 208.283 78.0117 194.851 78.0117 194.851L82.5502 183.084L86.4903 183.231H86.5016Z" fill="#AE7461"/>
<path d="M97.7234 201.091C97.8589 200.978 99.7443 203.175 102.375 205.542C105.028 207.886 107.444 209.494 107.342 209.642C107.308 209.698 106.665 209.359 105.671 208.724C104.689 208.09 103.357 207.139 102.013 205.938C100.625 204.693 99.5185 203.469 98.8185 202.631C98.0734 201.725 97.6557 201.125 97.7121 201.08L97.7234 201.091Z" fill="#6F4439"/>
<path d="M92.2029 204.376C92.3271 204.251 93.7157 205.712 95.714 207.116C97.7687 208.487 99.2816 209.868 99.18 209.982C99.0784 210.095 97.4752 208.928 95.4092 207.558C93.3432 206.108 92.1126 204.455 92.2029 204.387V204.376Z" fill="#6F4439"/>
<path d="M40.1348 141.917L67.5689 147.172L75.5507 121.645L69.0253 91.3042C69.0253 91.3042 54.4276 91.8365 49.6295 103.807C44.8313 115.778 40.1348 141.917 40.1348 141.917Z" fill="#455A64"/>
<path d="M177.779 112.709C177.779 112.709 181.019 111.996 179.416 105.166C178.411 100.886 175.77 103.354 175.77 103.354C175.77 103.354 173.275 101.101 171.491 104.136L171.118 103.706C171.118 103.706 169.154 100.376 166.297 103.57C166.297 103.57 164.243 102.618 162.865 104.215C161.488 105.812 163.723 109.379 163.723 109.379C163.723 109.379 164.186 114.634 165.586 114.827C166.986 115.031 167.472 113.944 167.652 113.626C167.833 113.309 167.833 109.923 167.833 109.923C167.833 109.923 168.205 114.51 169.143 114.872C170.791 115.495 172.417 115.189 171.818 109.64C171.818 109.64 172.191 113.774 173.094 114.181C174.133 114.657 175.284 113.91 175.871 112.381C176.458 110.852 176.255 109.527 176.255 109.527C176.255 109.527 175.736 113.445 177.768 112.709H177.779Z" fill="#AE7461"/>
<path d="M175.759 103.558C175.612 103.581 175.804 105.246 175.894 107.307C175.996 109.368 175.973 111.044 176.12 111.056C176.255 111.067 176.492 109.38 176.391 107.284C176.289 105.189 175.883 103.536 175.747 103.558H175.759Z" fill="#6F4439"/>
<path d="M171.321 104.057C171.186 104.091 171.434 105.654 171.592 107.59C171.762 109.527 171.773 111.112 171.92 111.112C172.055 111.112 172.258 109.515 172.089 107.545C171.92 105.574 171.445 104.023 171.31 104.057H171.321Z" fill="#6F4439"/>
<path d="M166.06 103.502C165.925 103.569 166.726 105.087 167.2 107.114C167.697 109.13 167.663 110.852 167.821 110.852C167.946 110.874 168.205 109.108 167.697 107.001C167.2 104.895 166.173 103.434 166.071 103.502H166.06Z" fill="#6F4439"/>
<path d="M68.4379 116.446C68.4379 116.446 68.5169 116.888 68.5395 117.681C68.5734 118.474 68.5847 119.617 68.5847 121.044C68.5847 123.876 68.5056 127.794 68.3476 132.12C68.1895 136.367 68.0541 140.207 67.9412 143.185C67.8847 144.499 67.8395 145.62 67.7944 146.537C67.7492 147.33 67.7041 147.772 67.6702 147.772C67.625 147.772 67.5912 147.33 67.5686 146.537C67.5347 145.745 67.5234 144.601 67.5234 143.174C67.5234 140.343 67.6025 136.424 67.7605 132.098C67.9186 127.851 68.0541 124.012 68.167 121.033C68.2234 119.719 68.2686 118.598 68.3137 117.681C68.3589 116.888 68.404 116.446 68.4379 116.446Z" fill="#263238"/>
</g>
<defs>
<clipPath id="clip0_1073_37482">
<rect width="356" height="228" fill="white"/>
</clipPath>
</defs>
</svg>
